<svg width="271" height="36" viewBox="0 0 271 36" fill="none" xmlns="http://www.w3.org/2000/svg">
<g clip-path="url(#clip0_9443_17135)">
<path d="M258.928 9.26758C261.028 9.26759 262.823 9.37558 264.307 9.59668L264.306 9.59766C265.832 9.82353 267.123 10.2824 268.136 11.0137C269.179 11.7667 269.908 12.8644 270.354 14.2451C270.794 15.6112 270.999 17.3774 270.999 19.5117C270.999 21.7088 270.794 23.5216 270.354 24.918C269.911 26.3276 269.184 27.4485 268.141 28.2148L268.136 28.2188C267.122 28.9505 265.831 29.4041 264.306 29.6191L264.307 29.6201C262.823 29.8412 261.028 29.9482 258.928 29.9482C256.838 29.9482 255.043 29.841 253.55 29.6201V29.6191C252.024 29.4041 250.732 28.9505 249.719 28.2188L249.715 28.2148C248.671 27.4485 247.943 26.3278 247.5 24.918C247.061 23.5216 246.855 21.7088 246.855 19.5117C246.855 17.3774 247.061 15.6112 247.502 14.2451C247.947 12.8646 248.676 11.7667 249.719 11.0137C250.732 10.2824 252.023 9.82254 253.55 9.59668C255.043 9.37576 256.838 9.26758 258.928 9.26758ZM257.521 29.1836C257.534 29.1839 257.547 29.1842 257.56 29.1846C257.547 29.1842 257.534 29.1839 257.521 29.1836ZM256.851 29.1611C256.936 29.1646 257.023 29.1669 257.11 29.1699C257.023 29.1669 256.936 29.1647 256.851 29.1611ZM256.297 29.1348C256.312 29.1356 256.327 29.1359 256.342 29.1367C256.327 29.1359 256.312 29.1356 256.297 29.1348ZM255.636 29.0928C255.695 29.0971 255.754 29.1005 255.813 29.1045C255.754 29.1005 255.695 29.0971 255.636 29.0928ZM255.123 29.0508C255.157 29.0538 255.191 29.0567 255.225 29.0596C255.191 29.0567 255.157 29.0538 255.123 29.0508ZM254.63 29.0029C254.639 29.0039 254.648 29.0049 254.657 29.0059C254.648 29.0049 254.639 29.0039 254.63 29.0029ZM265.074 28.7207C265.109 28.713 265.143 28.7063 265.178 28.6982C265.143 28.7062 265.109 28.713 265.074 28.7207ZM265.537 28.6055C265.568 28.5969 265.599 28.5889 265.63 28.5801C265.599 28.5889 265.568 28.5969 265.537 28.6055ZM265.973 28.4727C266.004 28.4623 266.035 28.453 266.065 28.4424C266.035 28.453 266.004 28.4623 265.973 28.4727ZM266.37 28.3271C266.408 28.3121 266.446 28.2978 266.483 28.2822C266.446 28.2978 266.408 28.3121 266.37 28.3271ZM266.755 28.1611C266.795 28.1422 266.835 28.1231 266.875 28.1035C266.835 28.1231 266.795 28.1422 266.755 28.1611ZM268.259 27.126C268.269 27.1153 268.28 27.1045 268.29 27.0938C268.28 27.1045 268.269 27.1153 268.259 27.126ZM268.655 26.667C268.666 26.6526 268.678 26.6386 268.688 26.624C268.678 26.6386 268.666 26.6526 268.655 26.667ZM249.053 26.4639C249.096 26.5273 249.142 26.5888 249.188 26.6494C249.142 26.5888 249.096 26.5273 249.053 26.4639ZM258.928 26.6348L258.762 26.6338C258.817 26.6339 258.872 26.6357 258.928 26.6357C259.238 26.6357 259.538 26.6299 259.827 26.626C259.538 26.6299 259.238 26.6348 258.928 26.6348ZM265.915 25.4639C265.39 25.9345 264.571 26.2497 263.457 26.4102L263.024 26.4629C262.237 26.5485 261.277 26.6013 260.143 26.623C261.494 26.5972 262.599 26.5277 263.458 26.4111C264.571 26.2507 265.39 25.9353 265.915 25.4648C265.952 25.4311 265.986 25.3935 266.021 25.3574C265.986 25.3934 265.952 25.4302 265.915 25.4639ZM251.738 25.2559C251.803 25.3296 251.869 25.3997 251.94 25.4648C252.465 25.9354 253.285 26.2507 254.398 26.4111C255.16 26.5135 256.107 26.5799 257.239 26.6123C256.314 26.5859 255.512 26.5361 254.834 26.4629L254.397 26.4102C253.284 26.2497 252.465 25.9343 251.94 25.4639C251.87 25.399 251.802 25.3293 251.738 25.2559ZM248.839 26.1279C248.865 26.1731 248.892 26.2177 248.92 26.2617C248.892 26.2177 248.865 26.1732 248.839 26.1279ZM258.928 13.3281C257.036 13.3281 255.566 13.4085 254.504 13.5615C253.457 13.7124 252.807 13.9949 252.439 14.3242L252.433 14.3301C252.074 14.6447 251.79 15.1583 251.648 15.9668C251.509 16.8291 251.435 18.0057 251.435 19.5117C251.435 21.0725 251.509 22.2941 251.649 23.1904L251.709 23.4932C251.864 24.1664 252.125 24.6181 252.443 24.9111C252.811 25.2391 253.46 25.5205 254.504 25.6709L254.922 25.7217C255.943 25.8316 257.275 25.8887 258.928 25.8887C260.828 25.8887 262.297 25.8125 263.351 25.6699C264.394 25.5196 265.043 25.239 265.411 24.9111C265.772 24.5785 266.055 24.04 266.188 23.1982L266.189 23.1904C266.34 22.2971 266.42 21.0758 266.42 19.5117C266.42 18.0022 266.34 16.826 266.19 15.9668L266.188 15.958C266.057 15.1518 265.778 14.6423 265.422 14.3301L265.415 14.3242C265.048 13.995 264.398 13.7124 263.351 13.5615L263.35 13.5605C262.299 13.4077 260.83 13.3281 258.928 13.3281ZM269.214 25.7646C269.217 25.7587 269.219 25.7521 269.222 25.7461C269.219 25.7521 269.217 25.7587 269.214 25.7646ZM248.287 24.9141C248.38 25.1841 248.485 25.4392 248.601 25.6797C248.485 25.4392 248.38 25.1841 248.287 24.9141ZM251.29 24.5664C251.397 24.7891 251.523 24.9868 251.665 25.1641C251.523 24.9867 251.397 24.7884 251.29 24.5654V24.5664ZM269.693 24.5117C269.719 24.4223 269.746 24.3316 269.771 24.2383C269.746 24.3316 269.719 24.4223 269.693 24.5117ZM250.157 11.6182C249.268 12.2599 248.621 13.2125 248.214 14.4746C247.807 15.7366 247.604 17.4156 247.604 19.5117C247.604 21.5373 247.786 23.1812 248.144 24.4453C247.786 23.1814 247.604 21.5378 247.604 19.5127C247.604 17.4166 247.807 15.7376 248.214 14.4756C248.621 13.2135 249.269 12.2609 250.158 11.6191C250.18 11.6037 250.201 11.5884 250.223 11.5732C250.201 11.5884 250.179 11.6027 250.157 11.6182ZM267.086 21.9492C267.047 22.4597 266.994 22.9151 266.927 23.3145L266.861 23.6602C266.825 23.8243 266.78 23.9797 266.731 24.1279C266.813 23.8791 266.881 23.6091 266.928 23.3154C266.995 22.9158 267.047 22.4601 267.086 21.9492ZM269.843 23.9326C269.858 23.8676 269.874 23.8021 269.888 23.7354C269.874 23.8021 269.858 23.8676 269.843 23.9326ZM269.942 23.4541C269.96 23.3584 269.978 23.2611 269.994 23.1621C269.978 23.2612 269.96 23.3584 269.942 23.4541ZM270.035 22.8965C270.05 22.7959 270.064 22.6937 270.077 22.5898C270.064 22.6937 270.05 22.7959 270.035 22.8965ZM270.115 22.2754C270.126 22.18 270.134 22.0833 270.144 21.9854C270.134 22.0833 270.126 22.18 270.115 22.2754ZM266.679 14.9004C266.788 15.1806 266.871 15.493 266.927 15.8379C267.087 16.7577 267.168 17.9823 267.168 19.5117L267.164 20.0908C267.156 20.7227 267.133 21.2989 267.096 21.8193C267.143 21.1441 267.168 20.3753 267.168 19.5127C267.168 17.9833 267.088 16.7587 266.928 15.8389C266.853 15.379 266.73 14.9768 266.562 14.6318L266.679 14.9004ZM270.178 21.6025C270.186 21.4988 270.192 21.3936 270.198 21.2871C270.192 21.3936 270.186 21.4988 270.178 21.6025ZM270.215 21.0127C270.222 20.8755 270.226 20.7362 270.231 20.5947C270.226 20.7362 270.222 20.8755 270.215 21.0127ZM270.191 17.7002C270.185 17.6027 270.18 17.5063 270.172 17.4111C270.18 17.5063 270.185 17.6027 270.191 17.7002ZM270.133 17.001C270.125 16.9296 270.118 16.859 270.11 16.7891C270.118 16.859 270.125 16.9296 270.133 17.001ZM270.066 16.4453C270.054 16.3535 270.041 16.263 270.027 16.1738C270.041 16.263 270.054 16.3535 270.066 16.4453ZM269.981 15.8975C269.964 15.8001 269.947 15.7044 269.929 15.6104C269.947 15.7044 269.964 15.8001 269.981 15.8975ZM269.869 15.3291C269.852 15.2534 269.835 15.1788 269.817 15.1055C269.835 15.1788 269.852 15.2534 269.869 15.3291ZM269.642 14.4756C269.678 14.5885 269.71 14.7056 269.743 14.8252C269.733 14.7887 269.725 14.7517 269.715 14.7158L269.642 14.4746C269.639 14.4678 269.636 14.4609 269.634 14.4541C269.636 14.4613 269.639 14.4684 269.642 14.4756ZM266.305 14.2031C266.366 14.2889 266.423 14.3799 266.477 14.4756C266.423 14.3799 266.366 14.2889 266.305 14.2031ZM269.142 13.2959C269.128 13.2713 269.116 13.246 269.103 13.2217C269.116 13.246 269.128 13.2713 269.142 13.2959ZM268.931 12.9365C268.914 12.9109 268.898 12.8855 268.881 12.8604C268.898 12.8855 268.914 12.9109 268.931 12.9365ZM268.829 12.7852C268.804 12.7483 268.778 12.7117 268.752 12.6758C268.778 12.7117 268.804 12.7483 268.829 12.7852ZM268.693 12.5967C268.675 12.5722 268.656 12.5484 268.637 12.5244C268.656 12.5484 268.675 12.5722 268.693 12.5967ZM268.569 12.4414C268.546 12.4131 268.523 12.385 268.499 12.3574C268.523 12.385 268.546 12.4131 268.569 12.4414ZM267.698 11.6191C267.972 11.8169 268.223 12.045 268.451 12.3018C268.269 12.0967 268.073 11.9097 267.861 11.7422L267.698 11.6182C267.683 11.6072 267.667 11.5977 267.651 11.5869C267.667 11.5979 267.683 11.6081 267.698 11.6191ZM250.523 11.376C250.488 11.3973 250.454 11.4195 250.42 11.4414C250.454 11.4195 250.488 11.3973 250.523 11.376ZM267.336 11.3789C267.369 11.3992 267.402 11.4206 267.435 11.4414C267.402 11.4206 267.369 11.3992 267.336 11.3789ZM251.265 10.9932C251.081 11.0739 250.906 11.1602 250.738 11.2529C250.906 11.1603 251.081 11.0739 251.265 10.9932ZM266.98 11.1787C266.859 11.1154 266.733 11.0563 266.604 10.999C266.733 11.0563 266.859 11.1154 266.98 11.1787ZM251.671 10.8281C251.55 10.8729 251.433 10.9213 251.318 10.9707C251.433 10.9213 251.55 10.8729 251.671 10.8281ZM266.493 10.9521C266.395 10.9107 266.296 10.8701 266.193 10.832C266.296 10.8701 266.395 10.9108 266.493 10.9521ZM252.113 10.6787C251.998 10.7141 251.886 10.7519 251.775 10.791C251.886 10.7519 251.998 10.7141 252.113 10.6787ZM266.052 10.7822C265.955 10.7482 265.856 10.7147 265.756 10.6836C265.856 10.7147 265.955 10.7482 266.052 10.7822ZM252.598 10.5449C252.468 10.5772 252.342 10.612 252.218 10.6484C252.342 10.612 252.468 10.5771 252.598 10.5449ZM265.613 10.6416C265.499 10.6084 265.383 10.5765 265.265 10.5469C265.383 10.5765 265.499 10.6084 265.613 10.6416ZM253.09 10.4346C252.946 10.463 252.806 10.4942 252.669 10.5273C252.806 10.4942 252.946 10.463 253.09 10.4346ZM265.175 10.5254C265.043 10.4938 264.909 10.4638 264.771 10.4365C264.909 10.4638 265.043 10.4938 265.175 10.5254ZM258.928 10.0146C256.861 10.0146 255.105 10.1211 253.659 10.335L253.391 10.3779C253.321 10.3897 253.253 10.4042 253.186 10.417C253.34 10.3878 253.498 10.3598 253.659 10.3359C255.105 10.122 256.861 10.0156 258.928 10.0156C259.445 10.0156 259.943 10.0209 260.42 10.0342C260.182 10.0276 259.939 10.0228 259.691 10.0195L258.928 10.0146ZM263.09 10.1982C263.478 10.2377 263.847 10.2838 264.196 10.3359C264.354 10.3593 264.509 10.3866 264.66 10.415C264.595 10.4028 264.53 10.3892 264.464 10.3779L264.196 10.335C263.847 10.2828 263.478 10.2377 263.09 10.1982ZM262.992 10.1885C262.827 10.1723 262.659 10.1575 262.487 10.1436C262.659 10.1575 262.827 10.1723 262.992 10.1885ZM262.391 10.1357C262.204 10.1212 262.013 10.1086 261.818 10.0967C262.013 10.1086 262.204 10.1212 262.391 10.1357ZM261.793 10.0947C261.584 10.082 261.37 10.0712 261.151 10.0615C261.37 10.0712 261.584 10.082 261.793 10.0947ZM261.115 10.0596C260.897 10.0501 260.675 10.0416 260.448 10.0352C260.675 10.0416 260.897 10.0501 261.115 10.0596ZM267.101 11.2441C267.061 11.2223 267.021 11.1999 266.98 11.1787C267.021 11.1999 267.061 11.2223 267.101 11.2441Z" fill="white"/>
<path d="M232.272 9.62012H243.661V13.6484H232.272V22.1748C232.272 23.3408 232.379 24.1243 232.545 24.5879L232.599 24.7109C232.739 24.987 232.976 25.1771 233.377 25.2871C233.954 25.4423 234.88 25.5351 236.199 25.5352C237.377 25.5352 238.278 25.4971 238.912 25.4268H238.913C239.506 25.362 239.815 25.2026 239.97 25.0518C240.123 24.891 240.295 24.5459 240.372 23.8711C240.453 23.1644 240.495 22.1434 240.495 20.7949V20.0479H244.722V20.7949C244.722 22.5902 244.608 24.0677 244.369 25.208V25.209C244.137 26.3689 243.696 27.3332 242.986 28.0176H242.987C242.293 28.6973 241.352 29.1097 240.234 29.3096L240.235 29.3105C239.168 29.5034 237.817 29.5947 236.199 29.5947C234.275 29.5947 232.677 29.4054 231.436 28.9961L231.43 28.9941C230.134 28.5546 229.149 27.7641 228.536 26.6172L228.531 26.6084C227.95 25.4841 227.693 23.9839 227.693 22.1748V4.56641H232.272V9.62012ZM228.441 22.1748C228.441 23.9287 228.693 25.2924 229.196 26.2656C229.71 27.2281 230.535 27.9021 231.67 28.2871C232.805 28.6614 234.315 28.8486 236.199 28.8486L236.2 28.8477C234.315 28.8477 232.805 28.6605 231.67 28.2861C230.535 27.9011 229.71 27.2271 229.196 26.2646C228.693 25.2914 228.441 23.9277 228.441 22.1738V22.1748ZM241.596 28.0947C241.17 28.3109 240.674 28.4733 240.104 28.5752C239.353 28.7107 238.44 28.7956 237.362 28.8301C238.439 28.7955 239.353 28.7116 240.103 28.5762C240.673 28.4742 241.17 28.3112 241.596 28.0947ZM243.109 26.6084C243.069 26.6841 243.028 26.7574 242.984 26.8281C243.028 26.7574 243.069 26.6841 243.109 26.6084ZM243.365 26.0322C243.348 26.0803 243.331 26.1283 243.312 26.1748C243.331 26.1283 243.348 26.0803 243.365 26.0322ZM238.994 26.1689C238.979 26.1706 238.964 26.1712 238.949 26.1729C238.965 26.1712 238.98 26.1706 238.995 26.1689C239.005 26.1679 239.014 26.1652 239.023 26.1641C239.014 26.1652 239.004 26.1679 238.994 26.1689ZM240.723 25.2881C240.657 25.3969 240.584 25.4924 240.504 25.5752C240.483 25.5961 240.46 25.6149 240.438 25.6348C240.46 25.6148 240.484 25.5962 240.505 25.5752C240.585 25.4923 240.658 25.3961 240.724 25.2871L240.723 25.2881ZM240.95 24.7637C240.911 24.8903 240.867 25.0076 240.816 25.1143L240.898 24.9209C240.917 24.8705 240.933 24.8177 240.95 24.7637ZM243.726 24.5752C243.698 24.7446 243.669 24.9069 243.637 25.0615C243.634 25.0773 243.629 25.0928 243.626 25.1084C243.629 25.0931 243.634 25.0779 243.637 25.0625C243.669 24.9076 243.698 24.7449 243.726 24.5752ZM241.235 21.748C241.219 22.6562 241.179 23.3919 241.114 23.9551C241.091 24.156 241.059 24.3418 241.02 24.5127C241.06 24.3418 241.092 24.1561 241.115 23.9551C241.18 23.392 241.219 22.656 241.235 21.748Z" fill="white"/>
<path d="M212.061 9.26758C214.16 9.26759 215.956 9.37558 217.439 9.59668L217.438 9.59766C218.965 9.82353 220.256 10.2824 221.269 11.0137C222.312 11.7667 223.041 12.8644 223.486 14.2451C223.927 15.6112 224.132 17.3774 224.132 19.5117C224.132 21.7088 223.926 23.5216 223.487 24.918C223.044 26.3276 222.317 27.4485 221.273 28.2148L221.269 28.2188C220.255 28.9505 218.964 29.4041 217.438 29.6191L217.439 29.6201C215.956 29.8412 214.16 29.9482 212.061 29.9482C209.971 29.9482 208.176 29.841 206.683 29.6201V29.6191C205.157 29.4041 203.865 28.9505 202.852 28.2188L202.848 28.2148C201.804 27.4485 201.076 26.3278 200.633 24.918C200.194 23.5216 199.988 21.7088 199.988 19.5117C199.988 17.3774 200.194 15.6112 200.635 14.2451C201.08 12.8646 201.809 11.7667 202.852 11.0137C203.864 10.2824 205.156 9.82254 206.683 9.59668C208.176 9.37576 209.971 9.26758 212.061 9.26758ZM211.3 29.1973L212.061 29.2021C211.797 29.2021 211.539 29.1998 211.285 29.1963C211.29 29.1964 211.295 29.1972 211.3 29.1973ZM206.156 28.7715C206.216 28.7833 206.276 28.7957 206.337 28.8066C206.276 28.7957 206.216 28.7833 206.156 28.7715ZM204.664 28.3447C204.756 28.3803 204.848 28.4154 204.943 28.4482C204.848 28.4154 204.756 28.3804 204.664 28.3447ZM202.186 26.4639C202.32 26.6596 202.465 26.8418 202.62 27.0107C202.465 26.8418 202.32 26.6596 202.186 26.4639ZM219.438 14.2031C219.742 14.628 219.951 15.172 220.06 15.8379C220.22 16.7577 220.301 17.9823 220.301 19.5117C220.301 21.0946 220.22 22.3626 220.06 23.3145C219.91 24.2661 219.572 24.9826 219.048 25.4639C218.523 25.9345 217.704 26.2497 216.59 26.4102C216.452 26.4289 216.308 26.4465 216.157 26.4629C215.103 26.5775 213.738 26.6348 212.061 26.6348C211.118 26.6348 210.272 26.6167 209.523 26.5801C210.272 26.6167 211.118 26.6357 212.061 26.6357C213.977 26.6357 215.488 26.5609 216.591 26.4111C217.704 26.2507 218.523 25.9352 219.048 25.4648C219.573 24.9835 219.911 24.2663 220.061 23.3145C220.221 22.3626 220.301 21.0954 220.301 19.5127C220.301 17.9834 220.221 16.7586 220.061 15.8389C219.952 15.1726 219.743 14.6281 219.438 14.2031ZM205.651 25.8564C206.139 26.1139 206.765 26.3007 207.531 26.4111C208.08 26.4849 208.725 26.5397 209.467 26.5771C208.725 26.5397 208.079 26.484 207.53 26.4102C206.764 26.2998 206.139 26.1136 205.651 25.8564ZM212.061 13.3281C210.169 13.3281 208.699 13.4085 207.637 13.5615C206.59 13.7124 205.939 13.9949 205.572 14.3242L205.565 14.3301C205.207 14.6447 204.922 15.1583 204.781 15.9668C204.642 16.8291 204.567 18.0057 204.567 19.5117C204.567 21.0725 204.642 22.2941 204.782 23.1904L204.842 23.4932C204.997 24.1664 205.258 24.6181 205.576 24.9111C205.944 25.2391 206.593 25.5205 207.637 25.6709L208.055 25.7217C209.076 25.8316 210.408 25.8887 212.061 25.8887C213.96 25.8887 215.43 25.8125 216.483 25.6699C217.527 25.5196 218.176 25.239 218.544 24.9111C218.905 24.5785 219.188 24.04 219.32 23.1982L219.322 23.1904C219.473 22.2971 219.553 21.0758 219.553 19.5117C219.553 18.0022 219.473 16.826 219.323 15.9668L219.321 15.958C219.19 15.1518 218.911 14.6423 218.555 14.3301L218.548 14.3242C218.181 13.995 217.53 13.7124 216.483 13.5615L216.482 13.5605C215.432 13.4077 213.963 13.3281 212.061 13.3281ZM201.419 24.9111C201.53 25.2328 201.656 25.5338 201.799 25.8135L201.697 25.6045C201.595 25.3854 201.503 25.1542 201.419 24.9111ZM204.871 25.2559C204.935 25.3296 205.002 25.3997 205.073 25.4648C205.139 25.5234 205.209 25.5791 205.283 25.6328C205.209 25.579 205.139 25.5226 205.073 25.4639C205.002 25.399 204.935 25.3293 204.871 25.2559ZM204.495 24.7031C204.585 24.8712 204.686 25.0243 204.798 25.1641C204.686 25.0243 204.585 24.8712 204.495 24.7031ZM201.799 13.3818C201.625 13.7157 201.474 14.0801 201.347 14.4746C200.94 15.7366 200.736 17.4156 200.736 19.5117C200.736 21.5373 200.919 23.1812 201.276 24.4453C200.919 23.1814 200.736 21.5378 200.736 19.5127C200.736 17.4164 200.94 15.7367 201.347 14.4746C201.474 14.0804 201.625 13.7165 201.799 13.3828V13.3818ZM218.683 13.499C218.771 13.5546 218.853 13.6134 218.931 13.6748C218.853 13.6134 218.771 13.5546 218.683 13.499ZM218.237 13.2637C218.319 13.3001 218.398 13.338 218.474 13.3779C218.398 13.338 218.319 13.3001 218.237 13.2637ZM212.061 10.0146C209.994 10.0146 208.238 10.1211 206.792 10.335C205.346 10.5488 204.179 10.9766 203.29 11.6182C202.735 12.0192 202.274 12.5422 201.906 13.1855L202.02 12.9971C202.367 12.4397 202.791 11.9802 203.291 11.6191C204.18 10.9776 205.347 10.5498 206.792 10.3359C208.238 10.122 209.994 10.0147 212.061 10.0146ZM216.59 12.8223C216.903 12.8674 217.192 12.9265 217.459 12.9961C217.193 12.9266 216.904 12.8673 216.591 12.8223C216.568 12.819 216.545 12.8167 216.522 12.8135C216.545 12.8166 216.568 12.819 216.59 12.8223ZM221.885 12.6758C221.935 12.7452 221.984 12.8167 222.032 12.8896C221.984 12.8167 221.935 12.7452 221.885 12.6758ZM215.648 12.7129C215.678 12.7156 215.707 12.7189 215.736 12.7217C215.707 12.7189 215.678 12.7156 215.648 12.7129ZM213.422 12.5967C213.862 12.607 214.276 12.6227 214.662 12.6436C214.276 12.6227 213.862 12.607 213.422 12.5967ZM220.178 11.2139C220.41 11.3381 220.628 11.4725 220.831 11.6191C220.886 11.659 220.941 11.7 220.994 11.7422C220.941 11.6998 220.886 11.6582 220.831 11.6182C220.628 11.4717 220.41 11.3381 220.178 11.2139ZM218.839 10.667C219.103 10.7469 219.353 10.8391 219.592 10.9385C219.213 10.7807 218.804 10.6448 218.361 10.5361L218.839 10.667ZM214.981 10.0977C215.842 10.1511 216.624 10.2309 217.329 10.3359C217.51 10.3627 217.686 10.3924 217.858 10.4258L217.329 10.335C216.624 10.2299 215.841 10.1511 214.981 10.0977ZM212.839 10.0195C213.569 10.0295 214.257 10.0541 214.901 10.0928C214.257 10.0541 213.569 10.0295 212.839 10.0195Z" fill="white"/>
<path d="M178.718 11.0146C178.897 10.8786 179.085 10.7503 179.279 10.6299L179.284 10.627C180.074 10.1465 181.079 9.81259 182.267 9.59961L182.736 9.52148C183.869 9.34962 185.261 9.2666 186.901 9.2666C189.356 9.2666 191.355 9.50318 192.857 10.0107L193.147 10.1152C194.573 10.661 195.637 11.5916 196.28 12.9111C196.941 14.2669 197.238 16.1095 197.238 18.3721V29.5947H192.644V18.3721C192.644 17.1434 192.537 16.2021 192.349 15.5234C192.169 14.8764 191.878 14.4478 191.511 14.1709L191.505 14.166C191.127 13.8754 190.553 13.6457 189.721 13.5283L189.712 13.5264C188.853 13.3952 187.738 13.3272 186.355 13.3271C184.243 13.3271 182.642 13.5026 181.52 13.8271C180.542 14.1097 179.899 14.5108 179.504 14.9834L179.346 15.1943C178.949 15.7844 178.718 16.6043 178.718 17.7139V29.5947H174.139V3.45898H178.718V11.0146ZM193.285 16.4512C193.355 17.0113 193.391 17.6517 193.391 18.3721V28.8477H193.392V18.373C193.392 17.6523 193.355 17.0115 193.285 16.4512ZM196.444 16.9355C196.458 17.1402 196.47 17.3501 196.478 17.5654L196.46 17.1797C196.455 17.0975 196.45 17.0161 196.444 16.9355ZM192.908 14.8545C192.968 15.0024 193.023 15.1581 193.069 15.3232C193.123 15.5157 193.17 15.724 193.21 15.9473C193.17 15.7243 193.124 15.5165 193.07 15.3242C193.024 15.1587 192.969 15.0027 192.908 14.8545ZM196.247 15.3018C196.26 15.3747 196.274 15.4486 196.286 15.5234C196.274 15.4486 196.26 15.3747 196.247 15.3018ZM195.923 14.0186C195.948 14.095 195.974 14.1726 195.998 14.252C195.974 14.1726 195.948 14.095 195.923 14.0186ZM191.961 13.5752C192.114 13.6907 192.252 13.8234 192.379 13.9707C192.252 13.8237 192.115 13.6905 191.962 13.5752C191.914 13.5385 191.864 13.5051 191.812 13.4707C191.863 13.5049 191.914 13.5387 191.961 13.5752ZM195.672 13.3779C195.694 13.4267 195.716 13.4761 195.737 13.5264C195.716 13.4761 195.694 13.4267 195.672 13.3779ZM186.901 10.0137C185.28 10.0137 183.93 10.095 182.85 10.2588C182.696 10.2822 182.546 10.3073 182.403 10.334C181.41 10.5118 180.589 10.7717 179.94 11.1133C179.848 11.162 179.758 11.2125 179.673 11.2646C179.589 11.3168 179.506 11.3705 179.425 11.4258C178.939 11.7576 178.514 12.1468 178.148 12.5928L177.971 12.8213C178.431 12.201 178.999 11.6827 179.674 11.2656C180.359 10.8485 181.269 10.5382 182.404 10.335C183.55 10.1211 185.049 10.0137 186.901 10.0137ZM189.43 12.7354C189.561 12.7515 189.689 12.7685 189.812 12.7871C189.689 12.7685 189.561 12.7514 189.43 12.7354ZM194.602 11.8643C194.866 12.1126 195.098 12.391 195.299 12.6973C195.098 12.3905 194.866 12.1119 194.601 11.8633L194.602 11.8643ZM187.361 12.5938C187.787 12.6053 188.185 12.6254 188.557 12.6523C188.185 12.6254 187.787 12.6053 187.361 12.5938ZM186.901 10.0137C189.321 10.0137 191.228 10.2492 192.62 10.7197C193.321 10.955 193.921 11.2825 194.419 11.7021L194.228 11.5488C193.77 11.2017 193.234 10.9247 192.62 10.7188C191.402 10.307 189.79 10.0759 187.785 10.0244L186.901 10.0137Z" fill="white"/>
<path d="M159.244 9.26758C161.344 9.26759 163.14 9.37558 164.623 9.59668L164.622 9.59766C166.148 9.82353 167.439 10.2824 168.452 11.0137C169.495 11.7667 170.225 12.8644 170.67 14.2451C171.11 15.6112 171.315 17.3774 171.315 19.5117C171.315 21.7088 171.11 23.5216 170.671 24.918C170.228 26.3276 169.501 27.4485 168.457 28.2148L168.452 28.2188C167.439 28.9505 166.148 29.4041 164.622 29.6191L164.623 29.6201C163.14 29.8412 161.344 29.9482 159.244 29.9482C157.23 29.9482 155.496 29.7969 154.057 29.4824H154.056C153.191 29.292 152.42 28.9606 151.751 28.4912V35.7559H147.172V9.62012H151.751V10.7188C152.42 10.2527 153.191 9.92471 154.056 9.73438H154.057C155.496 9.41987 157.23 9.26758 159.244 9.26758ZM157.296 29.1475C157.315 29.1486 157.334 29.1493 157.354 29.1504C157.334 29.1493 157.315 29.1486 157.296 29.1475ZM156.652 29.1016C156.723 29.1075 156.795 29.1118 156.867 29.1172C156.795 29.1118 156.723 29.1075 156.652 29.1016ZM156.083 29.0469C156.161 29.0553 156.24 29.0636 156.319 29.0713C156.24 29.0636 156.161 29.0553 156.083 29.0469ZM155.546 28.9814C155.607 28.9897 155.669 28.9981 155.731 29.0059C155.669 28.9981 155.607 28.9897 155.546 28.9814ZM154.953 28.8926C155.036 28.9064 155.119 28.9207 155.203 28.9336C155.119 28.9207 155.036 28.9064 154.953 28.8926ZM153.604 28.585C153.801 28.6495 154.005 28.7064 154.216 28.7529C154.376 28.7878 154.54 28.8198 154.708 28.8506C154.54 28.8198 154.376 28.7878 154.217 28.7529C154.005 28.7063 153.801 28.6497 153.604 28.585ZM164.826 28.8301C164.892 28.819 164.958 28.8099 165.022 28.7979C164.958 28.8099 164.892 28.819 164.826 28.8301ZM165.292 28.7412C165.361 28.7266 165.429 28.714 165.496 28.6982C165.429 28.714 165.361 28.7266 165.292 28.7412ZM165.854 28.6055C165.885 28.5969 165.916 28.5889 165.946 28.5801C165.916 28.5889 165.885 28.5969 165.854 28.6055ZM166.266 28.4805C166.31 28.4658 166.354 28.4518 166.397 28.4365C166.354 28.4518 166.31 28.4658 166.266 28.4805ZM166.66 28.3369C166.708 28.318 166.757 28.3 166.804 28.2803C166.757 28.3 166.708 28.318 166.66 28.3369ZM167.071 28.1611C167.112 28.1422 167.152 28.1231 167.191 28.1035C167.152 28.1231 167.112 28.1422 167.071 28.1611ZM151.69 27.4883C151.831 27.6156 151.978 27.7343 152.131 27.8447C151.978 27.7343 151.831 27.6156 151.69 27.4883ZM151.004 26.7314C151.076 26.828 151.152 26.9205 151.229 27.0107C151.152 26.9206 151.076 26.8279 151.004 26.7314ZM168.701 26.9922C168.717 26.9748 168.732 26.9571 168.748 26.9395C168.732 26.9571 168.717 26.9748 168.701 26.9922ZM168.972 26.667C168.983 26.6526 168.994 26.6386 169.005 26.624C168.994 26.6386 168.983 26.6526 168.972 26.667ZM159.244 26.6348L159.091 26.6338C159.142 26.6339 159.193 26.6357 159.244 26.6357C159.554 26.6357 159.855 26.6299 160.144 26.626C159.854 26.6299 159.555 26.6348 159.244 26.6348ZM156.633 26.5635C157.153 26.5951 157.72 26.6148 158.335 26.625C157.72 26.6148 157.153 26.595 156.633 26.5635ZM166.231 25.4639C165.707 25.9345 164.887 26.2497 163.773 26.4102L163.341 26.4629C162.818 26.5198 162.218 26.5621 161.541 26.5908C162.413 26.5539 163.157 26.4949 163.774 26.4111C164.888 26.2507 165.707 25.9352 166.231 25.4648C166.269 25.4308 166.303 25.3928 166.338 25.3564C166.303 25.3928 166.269 25.4299 166.231 25.4639ZM155.37 26.457C155.244 26.4424 155.121 26.4265 155.003 26.4102C154.868 26.3901 154.737 26.3677 154.609 26.3428C154.482 26.3179 154.359 26.2905 154.239 26.2607C154.042 26.2116 153.856 26.1531 153.681 26.0908C154.07 26.2288 154.51 26.3379 155.004 26.4111L155.37 26.457ZM153.083 25.833C153.207 25.8981 153.338 25.9586 153.477 26.0146C153.338 25.9587 153.207 25.8981 153.083 25.833ZM159.244 13.3281C157.517 13.3281 156.144 13.4078 155.113 13.5605C154.107 13.7099 153.423 13.9926 152.986 14.3477L152.979 14.3525C152.566 14.6813 152.24 15.2047 152.053 16.0068C151.857 16.8478 151.751 18.0089 151.751 19.5117C151.751 21.0689 151.858 22.2749 152.055 23.1504C152.243 23.9885 152.574 24.5404 152.991 24.8887C153.428 25.2418 154.111 25.5231 155.113 25.6719H155.112C156.145 25.8144 157.519 25.8887 159.244 25.8887C161.144 25.8887 162.613 25.8125 163.667 25.6699C164.71 25.5196 165.36 25.239 165.728 24.9111C166.089 24.5785 166.371 24.04 166.504 23.1982L166.506 23.1904C166.657 22.2971 166.736 21.0758 166.736 19.5117C166.736 18.0022 166.657 16.826 166.507 15.9668L166.505 15.958C166.373 15.1518 166.094 14.6423 165.738 14.3301L165.731 14.3242C165.364 13.995 164.714 13.7124 163.667 13.5615L163.666 13.5605C162.615 13.4077 161.146 13.3281 159.244 13.3281ZM151.863 24.6973C152.046 24.9974 152.262 25.2546 152.515 25.4648C152.605 25.5384 152.703 25.6059 152.806 25.6719C152.703 25.6057 152.604 25.5377 152.514 25.4639C152.261 25.2538 152.046 24.997 151.863 24.6973ZM169.994 24.5664C170.026 24.4578 170.059 24.3469 170.089 24.2324C170.059 24.3469 170.026 24.4578 169.994 24.5664ZM170.157 23.9443C170.174 23.8727 170.191 23.8003 170.206 23.7266C170.191 23.8003 170.174 23.8727 170.157 23.9443ZM167.37 22.3223C167.335 22.6841 167.294 23.0151 167.243 23.3145L167.179 23.6602C167.203 23.5487 167.225 23.4333 167.244 23.3145C167.295 23.015 167.335 22.6842 167.37 22.3223ZM170.26 23.4512C170.277 23.3564 170.294 23.2601 170.311 23.1621C170.294 23.2601 170.277 23.3564 170.26 23.4512ZM170.352 22.8965C170.366 22.7959 170.38 22.6937 170.394 22.5898C170.38 22.6937 170.366 22.7959 170.352 22.8965ZM170.432 22.2754C170.442 22.18 170.451 22.0833 170.46 21.9854C170.451 22.0833 170.442 22.18 170.432 22.2754ZM166.621 14.2031C166.926 14.628 167.135 15.172 167.243 15.8379C167.404 16.7577 167.484 17.9823 167.484 19.5117L167.48 20.0908C167.472 20.7227 167.449 21.2989 167.412 21.8193C167.46 21.1441 167.484 20.3753 167.484 19.5127C167.484 17.9834 167.405 16.7586 167.244 15.8389C167.136 15.1726 166.926 14.6281 166.621 14.2031ZM170.494 21.6025C170.502 21.4988 170.508 21.3936 170.515 21.2871C170.508 21.3936 170.502 21.4988 170.494 21.6025ZM170.531 21.0127C170.538 20.8755 170.543 20.7362 170.548 20.5947C170.543 20.7362 170.538 20.8755 170.531 21.0127ZM170.545 18.3945C170.54 18.2785 170.537 18.1639 170.531 18.0508C170.537 18.1639 170.54 18.2785 170.545 18.3945ZM170.515 17.8018C170.506 17.6695 170.499 17.5392 170.488 17.4111C170.499 17.5392 170.506 17.6695 170.515 17.8018ZM170.449 17.001C170.442 16.931 170.435 16.8616 170.427 16.793C170.435 16.8616 170.442 16.931 170.449 17.001ZM170.381 16.4336C170.369 16.3475 170.358 16.2625 170.345 16.1787C170.358 16.2625 170.369 16.3475 170.381 16.4336ZM170.288 15.8389C170.274 15.762 170.26 15.6861 170.245 15.6113C170.26 15.6861 170.274 15.7619 170.288 15.8389ZM170.186 15.3291C170.169 15.2534 170.152 15.1788 170.134 15.1055C170.152 15.1788 170.169 15.2534 170.186 15.3291ZM170.056 14.8086C170.047 14.7776 170.04 14.7463 170.031 14.7158L169.958 14.4746L170.056 14.8086ZM165.866 13.499C165.937 13.5436 166.005 13.5894 166.068 13.6377C166.005 13.5894 165.937 13.5436 165.866 13.499ZM165.407 13.2578C165.494 13.296 165.578 13.3358 165.657 13.3779C165.578 13.3358 165.494 13.296 165.407 13.2578ZM169.442 13.2637C169.438 13.2551 169.432 13.2468 169.428 13.2383C169.432 13.2468 169.438 13.2551 169.442 13.2637ZM163.773 12.8223C164.088 12.8676 164.379 12.927 164.646 12.9971C164.379 12.9271 164.089 12.8675 163.774 12.8223C163.763 12.8206 163.752 12.819 163.74 12.8174C163.751 12.819 163.762 12.8207 163.773 12.8223ZM169.247 12.9365C169.231 12.9109 169.214 12.8855 169.197 12.8604C169.214 12.8855 169.231 12.9109 169.247 12.9365ZM169.146 12.7852C169.12 12.7483 169.095 12.7117 169.068 12.6758C169.095 12.7117 169.12 12.7483 169.146 12.7852ZM169.01 12.5967C168.996 12.5782 168.981 12.5602 168.967 12.542C168.981 12.5602 168.996 12.5782 169.01 12.5967ZM159.244 10.0146C157.263 10.0146 155.587 10.1644 154.216 10.4639C152.856 10.7634 151.786 11.4315 151.004 12.4688V12.4697C151.786 11.4323 152.857 10.7633 154.217 10.4639C155.587 10.1644 157.263 10.0147 159.244 10.0146ZM168.747 12.2783C168.721 12.2498 168.695 12.2221 168.669 12.1943C168.695 12.2221 168.721 12.2498 168.747 12.2783ZM168.624 12.1465C168.592 12.1139 168.56 12.0823 168.527 12.0508C168.56 12.0823 168.592 12.1139 168.624 12.1465ZM168.479 12.0029C168.45 11.976 168.421 11.95 168.392 11.9238C168.421 11.95 168.45 11.976 168.479 12.0029ZM168.015 11.6191C168.07 11.659 168.124 11.7 168.178 11.7422L168.015 11.6182C167.999 11.6072 167.983 11.5977 167.968 11.5869C167.983 11.5979 167.999 11.6081 168.015 11.6191ZM167.737 11.4326C167.716 11.4192 167.695 11.4048 167.674 11.3916C167.695 11.4048 167.716 11.4192 167.737 11.4326ZM167.404 11.2373C167.374 11.2208 167.344 11.2036 167.313 11.1875C167.344 11.2036 167.374 11.2208 167.404 11.2373ZM167.191 11.1279C167.108 11.0864 167.024 11.0447 166.937 11.0059C167.024 11.0447 167.108 11.0864 167.191 11.1279ZM166.766 10.9346C166.682 10.9 166.598 10.8652 166.512 10.833C166.598 10.8652 166.682 10.9 166.766 10.9346ZM166.368 10.7822C166.271 10.7482 166.173 10.7147 166.072 10.6836C166.173 10.7147 166.271 10.7482 166.368 10.7822ZM165.92 10.6387C165.818 10.6091 165.714 10.5805 165.608 10.5537C165.714 10.5804 165.818 10.6091 165.92 10.6387ZM165.446 10.5137C165.34 10.4888 165.233 10.4655 165.123 10.4434C165.233 10.4655 165.34 10.4888 165.446 10.5137ZM163.406 10.1982C163.794 10.2377 164.163 10.2838 164.513 10.3359C164.657 10.3573 164.799 10.3816 164.938 10.4072C164.885 10.3976 164.833 10.3869 164.78 10.3779L164.513 10.335C164.163 10.2828 163.794 10.2377 163.406 10.1982ZM147.92 10.3682H151.004V10.3672H147.92V10.3682ZM163.309 10.1885C163.144 10.1723 162.975 10.1575 162.804 10.1436C162.975 10.1575 163.144 10.1723 163.309 10.1885ZM162.693 10.1348C162.548 10.1235 162.4 10.1132 162.249 10.1035C162.4 10.1132 162.548 10.1235 162.693 10.1348ZM162.031 10.0898C161.849 10.0792 161.663 10.0699 161.474 10.0615C161.663 10.0699 161.849 10.0792 162.031 10.0898ZM161.432 10.0596C161.214 10.0501 160.991 10.0416 160.765 10.0352C160.991 10.0416 161.214 10.0501 161.432 10.0596ZM160.735 10.0342C160.502 10.0277 160.264 10.0228 160.021 10.0195C160.264 10.0228 160.502 10.0277 160.735 10.0342Z" fill="white"/>
<path d="M142.804 29.5947H138.225V3.45898H142.804V29.5947Z" fill="white"/>
<path d="M122.781 9.26758C125.177 9.26758 127.194 9.43484 128.816 9.78125C130.48 10.1364 131.807 10.8323 132.705 11.9287C133.63 13.0449 134.034 14.6073 134.034 16.4961V21.2051H115.45C115.485 22.1914 115.571 22.9815 115.705 23.5859C115.858 24.2781 116.145 24.7284 116.521 25.0156C116.919 25.319 117.584 25.57 118.604 25.7012C119.654 25.8241 121.069 25.8887 122.861 25.8887C124.482 25.8887 125.776 25.8566 126.749 25.7939H126.75C127.728 25.7316 128.389 25.5983 128.788 25.4326C129.169 25.2687 129.355 25.0632 129.447 24.8408C129.577 24.5291 129.664 24.0506 129.664 23.3623V22.6152H134.034V23.3623C134.034 24.7998 133.818 26.0194 133.324 26.96C132.835 27.9111 132.076 28.6085 131.076 29.0381C130.13 29.4448 128.961 29.685 127.597 29.7852C126.264 29.8942 124.684 29.9482 122.861 29.9482C120.774 29.9482 118.981 29.8406 117.488 29.6201C115.97 29.4051 114.683 28.9507 113.669 28.2188L113.661 28.2129C112.629 27.4461 111.909 26.3253 111.467 24.918L111.465 24.9121C111.038 23.518 110.838 21.7076 110.838 19.5117C110.838 17.3796 111.033 15.6174 111.449 14.2559L111.45 14.251C111.884 12.8707 112.601 11.7714 113.634 11.0166C114.636 10.2843 115.911 9.82295 117.418 9.59668H117.419C118.902 9.37563 120.692 9.26758 122.781 9.26758ZM119.949 29.1182C120.183 29.1327 120.423 29.1465 120.668 29.1572C120.423 29.1465 120.183 29.1327 119.949 29.1182ZM116.979 28.7754C117.037 28.7868 117.096 28.798 117.154 28.8086C117.096 28.798 117.037 28.7868 116.979 28.7754ZM115.418 28.3213C115.54 28.3703 115.665 28.4171 115.794 28.4609C115.665 28.417 115.54 28.3703 115.418 28.3213ZM112.862 26.2285C113.069 26.5669 113.303 26.8685 113.562 27.1348C113.303 26.8685 113.069 26.567 112.862 26.2285ZM130.411 23.3623C130.411 24.1001 130.321 24.6885 130.139 25.127C129.957 25.5655 129.603 25.8975 129.078 26.1221C128.564 26.336 127.803 26.4749 126.797 26.5391C125.801 26.6032 124.489 26.6348 122.861 26.6348C121.052 26.6348 119.601 26.5707 118.509 26.4424C117.999 26.3768 117.548 26.2788 117.157 26.1514C117.548 26.279 117.999 26.3777 118.51 26.4434C119.602 26.5717 121.053 26.6357 122.862 26.6357C124.49 26.6357 125.802 26.6032 126.798 26.5391C127.804 26.4749 128.565 26.336 129.079 26.1221C129.603 25.8975 129.957 25.5662 130.139 25.1279C130.321 24.6895 130.412 24.1011 130.412 23.3633H133.286V23.3623H130.411ZM115.672 25.2324C115.791 25.372 115.922 25.4985 116.067 25.6094C116.322 25.8038 116.636 25.9646 117.007 26.0986C116.636 25.9646 116.322 25.8029 116.067 25.6084C115.922 25.4977 115.791 25.3717 115.672 25.2324ZM112.434 25.3877C112.492 25.5254 112.554 25.6583 112.618 25.7871C112.554 25.6583 112.492 25.5254 112.434 25.3877ZM121.291 10.0342C119.859 10.0743 118.606 10.1746 117.529 10.335C116.105 10.5489 114.953 10.9765 114.075 11.6182C113.197 12.2599 112.56 13.2125 112.164 14.4746C111.779 15.7366 111.586 17.4156 111.586 19.5117C111.586 21.6719 111.784 23.3993 112.18 24.6934C112.205 24.7742 112.232 24.8543 112.259 24.9326C112.232 24.8545 112.206 24.7749 112.181 24.6943C111.784 23.4002 111.586 21.673 111.586 19.5127C111.586 17.4164 111.779 15.7367 112.164 14.4746C112.56 13.2127 113.198 12.2608 114.076 11.6191C114.954 10.9775 116.105 10.5498 117.529 10.3359C118.785 10.1488 120.282 10.0429 122.021 10.0195L121.291 10.0342ZM115.185 24.418C115.255 24.5908 115.337 24.751 115.43 24.8994C115.337 24.751 115.255 24.5908 115.185 24.418ZM130.263 15.4404C130.308 15.7587 130.331 16.1109 130.331 16.4961V18.0361H130.332V16.4961C130.332 16.0148 130.296 15.5858 130.225 15.209L130.263 15.4404ZM122.781 13.3281C121.05 13.3281 119.674 13.3913 118.646 13.5146L118.646 13.5156C117.642 13.6373 116.966 13.8659 116.549 14.1465L116.54 14.1523C116.158 14.402 115.876 14.7827 115.714 15.3555L115.653 15.6074C115.555 16.0624 115.487 16.6209 115.454 17.2891H129.583V16.4961C129.583 15.778 129.497 15.2347 129.354 14.8408L129.349 14.8232C129.241 14.502 129.031 14.2408 128.663 14.0342L128.653 14.0283C128.27 13.8048 127.627 13.612 126.661 13.499C125.707 13.3863 124.417 13.3281 122.781 13.3281ZM129.985 14.3994C130.012 14.4601 130.036 14.5227 130.058 14.5869C130.066 14.6087 130.073 14.631 130.08 14.6533C130.073 14.6312 130.066 14.6085 130.059 14.5869C130.016 14.4587 129.962 14.3378 129.897 14.2236L129.985 14.3994ZM129.708 13.9463C129.754 14.0036 129.796 14.0633 129.836 14.125C129.796 14.0633 129.754 14.0036 129.708 13.9463ZM131.982 12.2334C132.033 12.2896 132.083 12.3467 132.131 12.4053C132.295 12.6034 132.44 12.8221 132.569 13.0596C132.44 12.8218 132.294 12.6027 132.13 12.4043C132.082 12.3461 132.033 12.2892 131.982 12.2334ZM127.458 12.8633C127.595 12.8886 127.726 12.9166 127.852 12.9463C127.726 12.9166 127.595 12.8886 127.458 12.8633ZM125.886 12.6768C126.05 12.6889 126.209 12.7023 126.36 12.7168C126.209 12.7023 126.05 12.6889 125.886 12.6768ZM130.586 11.1777C130.971 11.3778 131.314 11.6101 131.615 11.874C131.314 11.61 130.971 11.3779 130.586 11.1777ZM129.28 10.667C129.67 10.7789 130.031 10.9128 130.363 11.0684C130.031 10.9127 129.67 10.7789 129.28 10.667ZM128.661 10.5127C128.831 10.549 128.997 10.5893 129.157 10.6328C128.996 10.5892 128.831 10.5481 128.66 10.5117C128.503 10.4782 128.341 10.4481 128.176 10.418C128.342 10.4482 128.504 10.4791 128.661 10.5127ZM123.672 10.0225C125.322 10.0534 126.755 10.1736 127.972 10.3809C126.755 10.1735 125.322 10.0535 123.672 10.0225Z" fill="white"/>
<path d="M67.2393 6.30078H62.8936C61.3753 6.30079 60.3264 6.39797 59.6963 6.56445C59.1477 6.70951 58.8948 6.95844 58.7744 7.26172L58.7148 7.44043C58.5835 7.89164 58.501 8.5851 58.501 9.56445V9.62012H67.2393V13.4561H58.501V29.5957H53.9219V13.4561H50.8379V9.62012H53.9219V9.56445C53.9219 7.7483 54.2132 6.24403 54.8809 5.13672L54.8838 5.13086C55.5728 4.00973 56.6329 3.26131 57.9941 2.86426L57.9951 2.86328C59.3084 2.48358 60.9548 2.30469 62.9102 2.30469H67.2393V6.30078ZM54.6699 28.8486H54.6709L54.6699 12.71V28.8486ZM57.7549 10.3682H66.4922V10.3672H57.7549V10.3682ZM62.9102 3.05176C60.9933 3.05176 59.4239 3.22811 58.2031 3.58105C56.9932 3.93403 56.0987 4.58136 55.5205 5.52246C54.9532 6.46355 54.67 7.81094 54.6699 9.56445V10.3672H51.5859V10.3682H54.6709V9.56543C54.6709 7.81149 54.954 6.46362 55.5215 5.52246C56.0997 4.58139 56.9942 3.93499 58.2041 3.58203C59.2722 3.27322 60.607 3.09916 62.208 3.06055L62.9111 3.05176H62.9102Z" fill="white"/>
<path d="M75.1826 29.5947H70.6035V10.6465H75.1826V29.5947ZM71.3516 28.8486H74.4355V28.8477H71.3516V28.8486ZM75.1826 8.0332H70.6035V3.45898H75.1826V8.0332Z" fill="white"/>
<path d="M111.298 9.43555L100.938 19.5166L111.298 29.5977H104.989L104.771 29.3809L94.8242 19.5166L104.771 9.65234L104.989 9.43555H111.298ZM109.457 10.1826L99.8652 19.5176L109.456 28.8506H109.459L99.8672 19.5166L109.459 10.1826H109.457Z" fill="white"/>
<path d="M84.6875 9.65234L94.6338 19.5166L84.6875 29.3809L84.4688 29.5977H78.1602L88.5195 19.5166L78.1602 9.43555H84.4688L84.6875 9.65234ZM93.5693 19.5176L84.1582 28.8506H84.1602L93.5723 19.5166L84.1602 10.1826H84.1572L93.5693 19.5176Z" fill="#FDC101"/>
<path d="M47.8466 0L45.9223 5.02309L44.0466 9.9189H24.373L25.3172 7.45555L25.866 6.02359C27.2562 2.39545 30.7394 0 34.6248 0H47.8466Z" fill="#FDC101"/>
<path d="M35.2103 12.623L32.5014 20.3596L31.5722 23.011H15.2977L12.3033 31.5591H0L2.99434 23.011L4.1615 19.6794L4.36766 19.0906C5.72423 15.2167 9.38063 12.623 13.4852 12.623H35.2103Z" fill="#FDC101"/>
<path d="M20.7651 4.95477C20.7651 7.69586 18.5424 9.9189 15.7995 9.9189C13.0567 9.9189 10.834 7.69586 10.834 4.95477C10.834 2.21367 12.8955 0.156447 15.4959 0H16.1032C18.7045 0.156447 20.7651 2.31485 20.7651 4.95477Z" fill="white"/>
</g>
<defs>
<clipPath id="clip0_9443_17135">
<rect width="271" height="36" fill="white"/>
</clipPath>
</defs>
</svg>
