<svg width="271" height="36" viewBox="0 0 271 36" fill="none" xmlns="http://www.w3.org/2000/svg">
<g clip-path="url(#clip0_9626_16121)">
<path d="M269.817 14.2722C269.401 12.8988 268.708 11.7922 267.725 11.0455C266.767 10.3122 265.544 9.85883 264.107 9.63216C262.708 9.40549 261.006 9.29883 259.027 9.29883C257.048 9.29883 255.359 9.40549 253.948 9.63216C252.511 9.85883 251.288 10.3122 250.33 11.0455C249.347 11.7922 248.654 12.8988 248.238 14.2722C247.822 15.6455 247.633 17.4055 247.633 19.5388C247.633 21.6722 247.822 23.5522 248.238 24.9522C248.654 26.3522 249.347 27.4855 250.33 28.2455C251.175 28.8855 252.208 29.3122 253.418 29.5522L253.948 29.6455C255.359 29.8722 257.048 29.9788 259.027 29.9788C261.006 29.9788 262.708 29.8722 264.107 29.6455C265.544 29.4322 266.767 28.9788 267.725 28.2455C268.708 27.4855 269.401 26.3522 269.817 24.9522C270.233 23.5522 270.422 21.7388 270.422 19.5388C270.422 17.3388 270.233 15.6455 269.817 14.2722ZM265.884 23.2188C265.758 24.0722 265.494 24.6055 265.153 24.9388C264.8 25.2722 264.195 25.5522 263.2 25.6988C262.204 25.8455 260.817 25.9255 259.027 25.9255C257.464 25.9255 256.204 25.8588 255.246 25.7522L254.855 25.6988C253.86 25.5522 253.254 25.2722 252.902 24.9388C252.599 24.6455 252.36 24.1922 252.208 23.5255L252.158 23.2188C252.019 22.3255 251.956 21.0988 251.956 19.5388C251.956 17.9788 252.019 16.8588 252.158 15.9922C252.284 15.1922 252.561 14.6722 252.889 14.3655H252.902C253.242 14.0322 253.86 13.7388 254.855 13.5922C255.851 13.4455 257.238 13.3522 259.027 13.3522C260.817 13.3522 262.204 13.4455 263.2 13.5922C264.195 13.7388 264.813 14.0322 265.153 14.3522H265.166C265.494 14.6722 265.758 15.1788 265.884 15.9922C266.023 16.8588 266.099 18.0322 266.099 19.5388C266.099 21.0455 266.023 22.3255 265.884 23.2188Z" fill="white"/>
<path d="M245.991 20.0713V20.8447C245.991 22.698 245.878 24.2313 245.638 25.3913C245.411 26.5913 244.983 27.578 244.302 28.298C243.621 29.0047 242.701 29.4313 241.63 29.6313C240.584 29.818 239.273 29.9247 237.697 29.9247C235.819 29.9247 234.269 29.738 233.059 29.3113C231.798 28.858 230.84 28.0447 230.235 26.858C229.668 25.6847 229.416 24.138 229.416 22.2847V4.11133H233.878V9.32466H244.97V13.4713H233.878V22.2713C233.878 23.4713 233.979 24.2847 234.155 24.7647L234.206 24.8847C234.332 25.178 234.571 25.3647 234.962 25.4713C235.517 25.6313 236.437 25.738 237.71 25.738C238.87 25.738 239.739 25.698 240.344 25.6313C240.924 25.5647 241.227 25.3913 241.39 25.2313C241.529 25.0713 241.706 24.7113 241.781 24.018C241.857 23.2847 241.895 22.2313 241.895 20.8447V20.0713H246.016H245.991Z" fill="white"/>
<path d="M227.161 14.2722C226.732 12.8988 226.052 11.7922 225.068 11.0455C224.11 10.3122 222.888 9.85883 221.451 9.63216C220.052 9.40549 218.35 9.29883 216.371 9.29883C214.392 9.29883 212.703 9.40549 211.292 9.63216C209.855 9.85883 208.632 10.3122 207.674 11.0455C206.691 11.7922 205.998 12.8988 205.582 14.2722C205.166 15.6455 204.977 17.4055 204.977 19.5388C204.977 21.6722 205.166 23.5522 205.582 24.9522C205.998 26.3522 206.691 27.4855 207.674 28.2455C208.518 28.8855 209.552 29.3122 210.762 29.5522L211.292 29.6455C212.703 29.8722 214.392 29.9788 216.371 29.9788C218.35 29.9788 220.052 29.8722 221.451 29.6455C222.888 29.4322 224.11 28.9788 225.068 28.2455C226.052 27.4855 226.745 26.3522 227.161 24.9522C227.577 23.5522 227.766 21.7388 227.766 19.5388C227.766 17.3388 227.577 15.6455 227.161 14.2722ZM223.228 23.2188C223.102 24.0722 222.837 24.6055 222.484 24.9388C222.144 25.2722 221.526 25.5522 220.543 25.6988C219.548 25.8455 218.161 25.9255 216.371 25.9255C214.808 25.9255 213.548 25.8588 212.59 25.7522L212.199 25.6988C211.203 25.5522 210.598 25.2722 210.245 24.9388C209.943 24.6455 209.703 24.1922 209.552 23.5255L209.502 23.2188C209.363 22.3255 209.3 21.0988 209.3 19.5388C209.3 17.9788 209.363 16.8588 209.502 15.9922C209.628 15.1922 209.892 14.6722 210.233 14.3655H210.245C210.586 14.0322 211.203 13.7388 212.199 13.5922C213.195 13.4455 214.581 13.3522 216.371 13.3522C218.161 13.3522 219.548 13.4455 220.543 13.5922C221.539 13.7388 222.144 14.0322 222.497 14.3522C222.837 14.6722 223.102 15.1788 223.228 15.9922C223.367 16.8588 223.442 18.0322 223.442 19.5388C223.442 21.0455 223.367 22.3255 223.228 23.2188Z" fill="white"/>
<path d="M203.074 18.6977V29.9243H198.738V18.6977C198.738 17.471 198.637 16.5377 198.46 15.8577C198.296 15.2043 198.019 14.7777 197.666 14.4977C197.313 14.2043 196.771 13.9777 195.977 13.8577C195.158 13.7243 194.112 13.6577 192.801 13.6577C190.809 13.6577 189.297 13.831 188.238 14.1643C187.179 14.4843 186.536 14.9643 186.183 15.5243C185.805 16.111 185.591 16.9377 185.591 18.0443V29.9243H181.268V3.79102H185.591V11.351C185.767 11.2043 185.931 11.0843 186.12 10.9643C186.877 10.4843 187.822 10.151 188.944 9.93768L189.385 9.85768C190.456 9.68435 191.767 9.60435 193.318 9.60435C195.637 9.60435 197.528 9.83102 198.939 10.3377C200.427 10.871 201.523 11.831 202.179 13.2443C202.796 14.6043 203.074 16.4443 203.074 18.6977Z" fill="white"/>
<path d="M178.773 14.2722C178.344 12.8988 177.664 11.7922 176.668 11.0455C175.723 10.3122 174.5 9.85883 173.063 9.63216C171.664 9.40549 169.962 9.29883 167.983 9.29883C166.004 9.29883 164.441 9.44549 163.08 9.76549C162.261 9.95216 161.542 10.2855 160.9 10.7522V9.6455H156.576V35.7922H160.9V28.5255C161.542 28.9922 162.261 29.3255 163.08 29.5122C164.441 29.8322 166.08 29.9788 167.983 29.9788C169.887 29.9788 171.664 29.8722 173.063 29.6455C174.5 29.4322 175.723 28.9788 176.668 28.2455H176.681C177.664 27.4855 178.344 26.3522 178.773 24.9522C179.189 23.5522 179.378 21.7388 179.378 19.5388C179.378 17.3388 179.189 15.6455 178.773 14.2722ZM174.84 23.2188C174.714 24.0722 174.45 24.6055 174.097 24.9388C173.756 25.2722 173.139 25.5522 172.156 25.6988C171.16 25.8455 169.773 25.9255 167.983 25.9255C166.559 25.9255 165.387 25.8588 164.467 25.7522L164.076 25.6988C163.131 25.5522 162.488 25.2722 162.072 24.9255C161.681 24.5655 161.366 24.0188 161.189 23.1788C161 22.3122 160.9 21.0988 160.9 19.5388C160.9 17.9788 161 16.8855 161.189 16.0322C161.366 15.2322 161.681 14.7122 162.059 14.3788H162.072C162.488 14.0188 163.131 13.7388 164.076 13.5922C165.059 13.4455 166.345 13.3522 167.983 13.3522C169.773 13.3522 171.16 13.4455 172.156 13.5922C173.151 13.7388 173.756 14.0322 174.109 14.3522C174.45 14.6722 174.714 15.1788 174.84 15.9922C174.979 16.8588 175.055 18.0322 175.055 19.5388C175.055 21.0455 174.979 22.3255 174.84 23.2188Z" fill="white"/>
<path d="M131.48 3.8457H127.156V29.979H131.48V3.8457Z" fill="white"/>
<path d="M125.264 16.5255C125.264 14.6322 124.874 13.0722 124.004 11.9655C123.159 10.8588 121.899 10.1655 120.336 9.81883C118.798 9.47216 116.895 9.29883 114.639 9.29883C112.66 9.29883 110.971 9.40549 109.572 9.63216C108.147 9.85883 106.937 10.3122 105.992 11.0455C105.021 11.8055 104.341 12.8988 103.937 14.2855C103.546 15.6455 103.357 17.4055 103.357 19.5388C103.357 21.6722 103.546 23.5522 103.95 24.9388C104.366 26.3522 105.046 27.4722 106.03 28.2455C106.988 28.9788 108.198 29.4322 109.635 29.6455C111.046 29.8722 112.735 29.9788 114.714 29.9788C116.428 29.9788 117.928 29.9255 119.176 29.8188C120.475 29.7122 121.571 29.4722 122.466 29.0722C123.411 28.6455 124.13 27.9388 124.584 26.9922C125.05 26.0455 125.264 24.8322 125.264 23.3922V22.6455H121.13V23.3922C121.13 24.0855 121.054 24.5655 120.928 24.8722C120.84 25.0988 120.664 25.2988 120.311 25.4588C120.021 25.5922 119.605 25.6988 119.012 25.7655L118.382 25.8188C117.462 25.8855 116.239 25.9255 114.714 25.9255C113.441 25.9255 112.37 25.8855 111.5 25.8188L110.693 25.7388C109.723 25.6055 109.093 25.3522 108.727 25.0455C108.374 24.7655 108.097 24.3122 107.958 23.6188C107.832 23.0188 107.744 22.2188 107.719 21.2322H125.264V16.5255ZM121.054 17.3255H107.719C107.744 16.6588 107.807 16.0988 107.908 15.6322L107.958 15.3922C108.109 14.8188 108.387 14.4322 108.74 14.1788H108.752C109.143 13.8988 109.786 13.6722 110.731 13.5522C111.702 13.4188 113 13.3522 114.639 13.3522C116.176 13.3522 117.399 13.4188 118.294 13.5255C119.214 13.6455 119.819 13.8322 120.172 14.0588C120.525 14.2722 120.727 14.5388 120.827 14.8588C120.966 15.2722 121.042 15.8055 121.042 16.5255V17.3255H121.054Z" fill="white"/>
<path d="M55.2331 9.89753V9.95086H63.4892V13.7775H55.2331V29.9242H50.9097V13.7775H47.998V9.95086H50.9097V9.89753C50.9097 8.07086 51.187 6.56419 51.8173 5.45753C52.4727 4.33753 53.4685 3.59086 54.7541 3.19086C56.002 2.80419 57.5524 2.63086 59.3926 2.63086H63.4892V6.63086H59.38C57.9557 6.63086 56.96 6.72419 56.3675 6.89753C55.8507 7.03086 55.6113 7.28419 55.4978 7.59086L55.4348 7.76419C55.3087 8.21753 55.2331 8.91086 55.2331 9.89753Z" fill="white"/>
<path d="M69.7023 3.80469H65.3789V8.37802H69.7023V3.80469Z" fill="white"/>
<path d="M69.7023 10.0586H65.3789V29.9386H69.7023V10.0586Z" fill="white"/>
<path d="M93.2358 19.6188L103.244 29.9388H97.1432L96.9416 29.7122L87.3242 19.6188L96.9416 9.51216L97.1432 9.29883H103.244L93.2358 19.6188Z" fill="white"/>
<path d="M87.1482 19.6188L77.5308 29.7122L77.3166 29.9388H71.2285L81.2366 19.6188L71.2285 9.29883H77.3166L77.5308 9.51216L87.1482 19.6188Z" fill="#FDC101"/>
<path d="M154.746 23.4839C154.746 24.8972 154.557 26.0705 154.116 26.9639C153.687 27.8839 152.969 28.5772 152.036 29.0039C151.141 29.4039 149.982 29.6572 148.608 29.7639C147.259 29.8705 145.633 29.9239 143.717 29.9239C141.574 29.9239 139.822 29.8439 138.499 29.6972C137.163 29.5372 136.091 29.2439 135.31 28.7772C134.516 28.2839 133.961 27.5639 133.684 26.6572C133.432 25.8172 133.318 24.7505 133.318 23.5239V22.8572H137.39V23.5239C137.39 24.1639 137.44 24.6572 137.503 25.0172L137.554 25.1505C137.617 25.2705 137.73 25.4039 137.944 25.5239C138.272 25.6705 138.852 25.8172 139.785 25.8972H139.797C140.73 25.9772 142.066 26.0039 143.805 26.0039C145.633 26.0039 147.045 25.9772 148.041 25.8972L148.734 25.8305C149.351 25.7372 149.767 25.6305 150.045 25.5105C150.347 25.3505 150.448 25.1772 150.499 25.0039C150.574 24.6439 150.625 24.1639 150.625 23.4839C150.625 22.6705 150.562 22.1239 150.448 21.8172C150.398 21.6705 150.284 21.5105 149.893 21.4039H149.881C149.44 21.2839 148.658 21.2039 147.511 21.1905L140.528 21.1105C138.701 21.0839 137.264 20.9239 136.23 20.6039C135.159 20.2572 134.339 19.6305 133.911 18.6705H133.898C133.495 17.7772 133.331 16.5772 133.331 15.1372C133.331 13.7772 133.52 12.6439 133.974 11.8039C134.44 10.9372 135.184 10.3239 136.117 9.97721C136.999 9.64388 138.133 9.45721 139.457 9.40388C140.78 9.33721 142.343 9.31055 144.196 9.31055C146.377 9.31055 148.116 9.37721 149.414 9.52388C150.725 9.67055 151.784 9.93721 152.528 10.3905C153.309 10.8572 153.839 11.5639 154.078 12.4972C154.305 13.2972 154.406 14.3372 154.406 15.5372V16.2039H150.322V15.5372C150.322 14.8705 150.284 14.3772 150.209 14.0439C150.171 13.8705 150.07 13.7239 149.83 13.6172H149.818C149.541 13.4705 148.986 13.3505 148.091 13.2972C147.221 13.2572 145.961 13.2172 144.335 13.2172C142.495 13.2172 141.07 13.2439 140.049 13.2839C139.028 13.3239 138.36 13.4305 137.995 13.5639C137.654 13.6839 137.579 13.8172 137.566 13.8839C137.491 14.1372 137.44 14.5372 137.44 15.1372C137.44 15.7372 137.465 16.1772 137.516 16.4972C137.554 16.6705 137.629 16.7772 137.755 16.8572C137.906 16.9639 138.247 17.0705 138.864 17.1372C139.482 17.1905 140.377 17.2172 141.524 17.2305L147.562 17.2972C149.389 17.3105 150.826 17.4705 151.847 17.8039C152.931 18.1372 153.75 18.7905 154.166 19.8039C154.57 20.7105 154.734 21.9639 154.734 23.4972L154.746 23.4839Z" fill="white"/>
<path d="M45.1755 -0.0351562L43.3604 4.99151L41.5832 9.88484H23.0039L23.8988 7.41818L24.4156 5.99151C25.7265 2.36484 29.0163 -0.0351562 32.6969 -0.0351562H45.1755Z" fill="#FDC101"/>
<path d="M33.2511 12.5918L30.6923 20.3251L29.81 22.9785H14.4449L11.6215 31.5251H0L2.82344 22.9785L3.92005 19.6451C5.31916 15.4185 9.08795 12.5918 13.3231 12.5918H33.2385H33.2511Z" fill="#FDC101"/>
<path d="M19.5986 4.92484C19.5986 7.67151 17.4936 9.88484 14.9096 9.88484C12.3257 9.88484 10.2207 7.65818 10.2207 4.92484C10.2207 2.19151 12.1744 0.124844 14.6323 -0.0351562H15.1995C17.6574 0.124844 19.5986 2.28484 19.5986 4.92484Z" fill="white"/>
</g>
<defs>
<clipPath id="clip0_9626_16121">
<rect width="271" height="36" fill="white"/>
</clipPath>
</defs>
</svg>
