<svg width="126" height="49" viewBox="0 0 126 49" fill="none" xmlns="http://www.w3.org/2000/svg">
<path d="M36.8964 41.8299L34.0176 46.8184C33.5775 47.581 32.7639 48.0508 31.8833 48.0508H18.9279C10.9633 47.9859 4.52595 41.5089 4.52595 33.5281C4.52595 31.2417 5.05428 29.0761 5.99914 27.1521V27.1485L6.23535 26.7428L7.0017 25.4139L7.00711 25.4066L9.83087 20.5146L12.0416 16.6847H0L2.88425 11.6872C3.32437 10.9246 4.13796 10.4548 5.01846 10.4548H15.6371L20.961 1.23221C21.4011 0.469722 22.2146 0 23.0951 0H28.8579L22.8227 10.4548L19.2272 16.6847L17.8622 19.0505H17.8604L17.0165 20.5146L13.421 26.7428L12.2688 28.7389L12.2633 28.7479C11.9766 29.1536 11.726 29.5882 11.515 30.0444V30.0498C11.0246 31.1065 10.7505 32.2857 10.7505 33.5281C10.7505 35.0193 11.1436 36.4186 11.8306 37.6267C11.8324 37.6285 11.8324 37.6303 11.8342 37.6321C13.2641 40.1385 15.9598 41.8299 19.0523 41.8299H36.8964Z" fill="#00BC7D"/>
<path d="M24.9045 27.6448L22.7335 31.4044H31.6547C32.5403 31.4044 33.3579 31.8797 33.7961 32.6494L36.6341 37.6344H26.2659C26.2659 37.6344 26.2677 37.6308 26.2695 37.629H19.0496C16.7848 37.629 14.9492 35.7933 14.9492 33.5304C14.9492 32.8668 15.1061 32.2393 15.3874 31.6857L15.5497 31.4044L15.6128 31.2944L18.24 26.745L19.1127 25.2304H19.1145L21.8337 20.5169L22.472 19.4116L24.0444 16.687L26.9304 11.689C27.3706 10.9266 28.184 10.457 29.0643 10.457H42.7414L39.8572 15.4546C39.4171 16.2172 38.6035 16.687 37.723 16.687H31.23L29.0193 20.5169L28.0763 22.1506L25.4238 26.745L24.9045 27.6448Z" fill="#00BC7D"/>
<path d="M125.269 12.0581C124.94 11.417 124.461 10.9088 123.842 10.5492C123.285 10.213 122.674 10.041 122 10.041H113.728C113.061 10.041 112.442 10.213 111.87 10.557C111.337 10.8775 110.897 11.3154 110.568 11.8626H110.56C110.231 12.4255 110.074 13.0353 110.074 13.692V21.6977C110.09 22.2137 110.294 23.0189 110.529 23.4802L110.56 23.5427L110.576 23.5583C110.905 24.0822 111.337 24.5121 111.862 24.8405L111.893 24.864C112.458 25.1845 113.069 25.3409 113.736 25.3409H122.149V27.1234V27.1312C122.149 27.1312 122.141 27.1468 122.125 27.1624L122.101 27.1859L122.078 27.2094C122.078 27.2094 122.054 27.225 122.054 27.2328H122.039C122.039 27.2328 122.031 27.2406 122.015 27.2406H114.975C113.673 27.2406 112.622 28.2882 112.622 29.586V30.7744H122.015C122.682 30.7744 123.293 30.6024 123.858 30.2662H123.866C123.866 30.2662 123.881 30.2506 123.889 30.2506C124.438 29.9222 124.869 29.4922 125.183 28.945C125.52 28.3899 125.677 27.7723 125.677 27.0999V13.8718C125.677 13.2464 125.567 12.621 125.285 12.0659L125.269 12.0581ZM122.141 13.692V21.6977C122.141 21.6977 122.141 21.7602 122.086 21.8071C122.07 21.8306 122.054 21.8306 122.054 21.8306C122.047 21.8306 122.031 21.8384 122 21.8384H113.728C113.681 21.8384 113.649 21.8306 113.618 21.8071C113.595 21.7758 113.587 21.7446 113.587 21.6977V13.692C113.587 13.692 113.587 13.6451 113.595 13.6373C113.595 13.6373 113.595 13.6295 113.618 13.606C113.665 13.5591 113.697 13.5513 113.728 13.5513H122L122.023 13.5591H122.039C122.039 13.5591 122.047 13.5748 122.062 13.5826L122.086 13.606L122.109 13.6295C122.109 13.6295 122.125 13.6529 122.133 13.6529V13.6686V13.692H122.141Z" fill="#00BC7D"/>
<path d="M108.657 13.692V25.3565H105.137V13.6686C105.137 13.6686 105.137 13.6608 105.129 13.6529C105.129 13.6529 105.121 13.6529 105.113 13.6295L105.082 13.606L105.058 13.5826C105.058 13.5826 105.043 13.5669 105.035 13.5591H105.027C105.027 13.5591 105.011 13.5513 104.996 13.5513H96.7241C96.7241 13.5513 96.6692 13.5591 96.6143 13.606V13.6217L96.5908 13.6295C96.5829 13.6451 96.5751 13.6529 96.5673 13.6529V13.6686C96.5673 13.6686 96.5594 13.6842 96.5594 13.692V25.3565H93.0391V13.6138C93.0391 11.6437 94.6385 10.041 96.6222 10.041H104.996C105.654 10.041 106.258 10.213 106.815 10.5492C107.371 10.8697 107.826 11.3154 108.148 11.8782C108.485 12.4255 108.649 13.0353 108.649 13.692H108.657Z" fill="#00BC7D"/>
<path d="M91.1261 11.8841C90.8047 11.3212 90.3578 10.8756 89.7933 10.555C89.2366 10.2189 88.625 10.0469 87.9508 10.0469H79.5379C77.5935 10.0469 76.0176 11.6183 76.0176 13.5572H87.9508C87.9664 13.5572 87.9743 13.565 87.9743 13.565H87.99C87.99 13.565 87.9978 13.5806 88.0135 13.5884L88.037 13.6119L88.0605 13.6353C88.0605 13.6353 88.0762 13.6588 88.084 13.6588L88.0919 13.6744V15.9495H79.6007C77.6249 15.9495 76.0176 17.5522 76.0176 19.5223V21.7113C76.0176 22.3681 76.1744 22.9779 76.4958 23.5486L76.5115 23.5642V23.5798C76.8487 24.1037 77.2799 24.5336 77.8052 24.862L77.8366 24.8855C78.4011 25.206 79.0126 25.3624 79.6791 25.3624H91.6358V13.6979C91.6358 13.049 91.4633 12.4392 91.1261 11.8841ZM88.0919 21.8442H79.6791C79.632 21.8442 79.6085 21.8364 79.5693 21.813C79.5458 21.7817 79.5379 21.7504 79.5379 21.7035V19.4519H88.0919V21.8442Z" fill="#00BC7D"/>
<path d="M74.6065 13.6913V25.3557H71.0861V13.6678C71.0861 13.6678 71.0861 13.66 71.0783 13.6522C71.0783 13.6522 71.0704 13.6522 71.0626 13.6287L71.0312 13.6053L70.9842 13.5584H70.9763C70.9763 13.5584 70.9607 13.5506 70.9528 13.5506H62.6733C62.6733 13.5506 62.6184 13.5584 62.5635 13.6053V13.6209L62.54 13.6287C62.5322 13.6444 62.5243 13.6522 62.5165 13.6522V13.6678C62.5165 13.6678 62.5086 13.6835 62.5086 13.6913V25.3557H58.9883V5.54492H60.1565C61.458 5.54492 62.5086 6.59253 62.5086 7.89032V10.0481H70.9528C71.6036 10.0481 72.2151 10.2123 72.7718 10.5484H72.7797L72.7953 10.5641C73.3442 10.8846 73.7832 11.3302 74.1047 11.8775C74.4418 12.4248 74.6065 13.0346 74.6065 13.6913Z" fill="#00BC7D"/>
<path d="M51.618 13.5506V21.6969C51.618 21.7438 51.6259 21.7673 51.6494 21.8064C51.6886 21.8298 51.7121 21.8376 51.7592 21.8376H57.5846C57.5846 23.7765 56.0087 25.3479 54.0642 25.3479H51.7592C51.0927 25.3479 50.4655 25.1916 49.8931 24.871H49.8774L49.8618 24.8476C49.3364 24.5192 48.9052 24.0814 48.5838 23.5498V23.5342C48.2623 22.9713 48.0977 22.3615 48.0977 21.6969V5.54492H49.2659C50.5674 5.54492 51.618 6.59253 51.618 7.89032V10.0481H55.2325C56.534 10.0481 57.5846 11.0957 57.5846 12.3935V13.5506H51.618Z" fill="#00BC7D"/>
<path d="M81.4434 28.5996V32.063H84.9167V28.5996H81.4434ZM95.6268 36.4645V35.3465C95.6268 34.0488 94.5761 33.0011 93.2746 33.0011H89.7935V30.945C89.7935 29.6472 88.7428 28.5996 87.4413 28.5996H86.328V44.4076C86.328 45.0487 86.4848 45.6585 86.7984 46.2058V46.2214C87.1199 46.7452 87.5354 47.1752 88.0607 47.5035L88.0921 47.5192C88.6487 47.8397 89.2603 47.9883 89.9189 47.9883H92.1613C94.0743 47.9883 95.6268 46.4403 95.6268 44.5327H89.9189C89.8797 44.5327 89.8562 44.5249 89.8248 44.5014C89.8013 44.4702 89.7935 44.4467 89.7935 44.4076V36.4645H95.6268ZM81.4434 33.0011V47.9883H84.9167V33.0011H81.4434ZM117.321 33.0559C116.671 33.0559 116.051 33.2201 115.494 33.564C114.969 33.8768 114.538 34.3068 114.216 34.8384H114.209C113.887 35.3935 113.73 35.9954 113.73 36.6365V48.043H117.196V36.6365L117.204 36.5896L117.227 36.5662C117.227 36.5662 117.274 36.5271 117.282 36.5192C117.29 36.5192 117.298 36.5114 117.321 36.5114H123.319C124.621 36.5114 125.671 35.4638 125.671 34.166V33.0559H117.321ZM108.705 33.0559H100.598C98.6218 33.0559 97.0302 34.6586 97.0302 36.6287V44.4623C97.0302 46.409 98.5983 47.9961 100.551 48.0352C100.59 48.0352 100.613 48.0352 100.621 48.0352H108.712C110.704 48.0352 112.319 46.4247 112.319 44.4389V44.2591V36.6365C112.319 34.6586 110.727 33.0637 108.752 33.0559H108.705ZM108.822 36.6365V44.4623C108.822 44.4623 108.822 44.4936 108.814 44.5014C108.814 44.5093 108.807 44.5249 108.775 44.5562C108.76 44.5718 108.752 44.5718 108.752 44.5796H100.621C100.621 44.5796 100.558 44.5796 100.527 44.5562C100.504 44.5249 100.504 44.4936 100.504 44.4623V36.6365C100.504 36.6365 100.504 36.5896 100.511 36.5896C100.511 36.5896 100.511 36.5818 100.527 36.5662C100.558 36.5349 100.574 36.5271 100.582 36.5192C100.59 36.5192 100.598 36.5114 100.621 36.5114H108.705C108.705 36.5114 108.72 36.5192 108.728 36.5192C108.736 36.5192 108.744 36.5193 108.752 36.5427L108.799 36.5896C108.799 36.5896 108.814 36.6052 108.822 36.6131V36.6365Z" fill="white"/>
<path d="M76.5656 30.945V33.0011H68.3645C67.7843 33.0011 67.2354 33.1262 66.7336 33.392L66.5141 33.5093C65.9888 33.822 65.5576 34.252 65.2361 34.7915H65.2283C64.9068 35.3387 64.75 35.9407 64.75 36.5818V44.4076C64.75 45.0487 64.9068 45.6585 65.2204 46.2058L65.2361 46.237C65.5105 46.7843 65.9574 47.2299 66.5063 47.5035H66.5219L66.5376 47.5192C67.0943 47.8397 67.7059 47.9883 68.3645 47.9883H76.5656C78.4865 47.9883 80.0389 46.4403 80.0389 44.5249V28.5996H78.9177C77.6162 28.5996 76.5656 29.6472 76.5656 30.945ZM76.5656 44.4076C76.5656 44.4076 76.5577 44.4389 76.5577 44.4467C76.5577 44.4545 76.5421 44.4702 76.5185 44.5014C76.5029 44.5171 76.495 44.5249 76.4872 44.5249C76.4872 44.5249 76.4715 44.5327 76.4401 44.5327H68.3645C68.3645 44.5327 68.3017 44.5249 68.2704 44.5014C68.2468 44.4702 68.239 44.4467 68.239 44.4076V36.5818C68.239 36.5818 68.2468 36.5427 68.2468 36.5349L68.2704 36.5114C68.2704 36.5114 68.3174 36.4723 68.3253 36.4723C68.3331 36.4645 68.3409 36.4645 68.3645 36.4645H76.4715C76.4715 36.4645 76.4793 36.4723 76.495 36.488L76.5421 36.5349C76.5421 36.5349 76.5577 36.5505 76.5577 36.5583H76.5656V44.4076Z" fill="white"/>
<path d="M63.3397 42.2819V36.6373C63.3397 35.9884 63.1672 35.3786 62.8222 34.8313C62.5164 34.2997 62.093 33.8775 61.5599 33.5726H61.5521C61.5521 33.5726 61.5364 33.557 61.5285 33.5492C60.9875 33.2208 60.376 33.0566 59.7252 33.0566H51.6417C50.991 33.0566 50.3794 33.2286 49.8227 33.5648C49.2896 33.8775 48.8662 34.3075 48.5369 34.8391C48.2076 35.3942 48.0508 35.9962 48.0508 36.6373V44.4631C48.0508 45.0182 48.1841 45.5655 48.4271 46.0658L48.5447 46.2925C48.8662 46.8085 49.2974 47.2307 49.8149 47.5512L49.8384 47.5747C50.3951 47.8874 50.9988 48.0438 51.6417 48.0438H59.8664C61.7873 48.0438 63.3397 46.4958 63.3397 44.5804H51.6417C51.6104 44.5804 51.579 44.5804 51.5476 44.5569C51.5319 44.5257 51.5241 44.4944 51.5241 44.4631V42.2819H63.3397ZM51.5241 36.6373L51.5319 36.5904C51.5319 36.5904 51.5319 36.5826 51.5476 36.5669C51.579 36.5357 51.5947 36.5278 51.6025 36.52C51.6104 36.52 51.626 36.5122 51.6417 36.5122H59.7252C59.7252 36.5122 59.7409 36.52 59.7487 36.52C59.7566 36.52 59.7644 36.52 59.7723 36.5435L59.7958 36.5669L59.8193 36.5904C59.8193 36.5904 59.835 36.606 59.8428 36.6138V38.8185H51.5241V36.6373Z" fill="white"/>
<path d="M123.788 44.2734H123.78C122.737 44.2734 121.891 45.117 121.891 46.1576V46.1654C121.891 47.206 122.737 48.0495 123.78 48.0495H123.788C124.832 48.0495 125.678 47.206 125.678 46.1654V46.1576C125.678 45.117 124.832 44.2734 123.788 44.2734Z" fill="#00BC7D"/>
<path d="M104.793 35.293H104.377V45.3938H104.793V35.293Z" fill="white"/>
<path d="M109.645 40.5452V40.1309H99.5147V40.5452H109.645Z" fill="white"/>
</svg>
