<svg width="197" height="23" viewBox="0 0 197 23" fill="none" xmlns="http://www.w3.org/2000/svg">
<path d="M175.658 7.77046H169.455C169.237 7.77046 169.065 7.94877 169.065 8.17572V14.6923C169.065 14.9192 169.237 15.0975 169.455 15.0975H175.658C175.868 15.0975 176.047 14.9192 176.047 14.6923V8.17572C176.047 7.94877 175.868 7.77046 175.658 7.77046ZM189.784 7.77046H183.199V10.2101H189.784C190.002 10.2101 190.173 10.0318 190.173 9.80486V8.17572C190.173 7.94877 190.002 7.77046 189.784 7.77046ZM189.784 7.77046H183.199V10.2101H189.784C190.002 10.2101 190.173 10.0318 190.173 9.80486V8.17572C190.173 7.94877 190.002 7.77046 189.784 7.77046ZM175.658 7.77046H169.455C169.237 7.77046 169.065 7.94877 169.065 8.17572V14.6923C169.065 14.9192 169.237 15.0975 169.455 15.0975H175.658C175.868 15.0975 176.047 14.9192 176.047 14.6923V8.17572C176.047 7.94877 175.868 7.77046 175.658 7.77046ZM175.658 7.77046H169.455C169.237 7.77046 169.065 7.94877 169.065 8.17572V14.6923C169.065 14.9192 169.237 15.0975 169.455 15.0975H175.658C175.868 15.0975 176.047 14.9192 176.047 14.6923V8.17572C176.047 7.94877 175.868 7.77046 175.658 7.77046ZM189.784 7.77046H183.199V10.2101H189.784C190.002 10.2101 190.173 10.0318 190.173 9.80486V8.17572C190.173 7.94877 190.002 7.77046 189.784 7.77046ZM189.784 7.77046H183.199V10.2101H189.784C190.002 10.2101 190.173 10.0318 190.173 9.80486V8.17572C190.173 7.94877 190.002 7.77046 189.784 7.77046ZM175.658 7.77046H169.455C169.237 7.77046 169.065 7.94877 169.065 8.17572V14.6923C169.065 14.9192 169.237 15.0975 169.455 15.0975H175.658C175.868 15.0975 176.047 14.9192 176.047 14.6923V8.17572C176.047 7.94877 175.868 7.77046 175.658 7.77046ZM194.571 1.25391H117.65C116.794 1.25391 116.094 1.98337 116.094 2.87494V20.0093C116.094 20.9008 116.794 21.6303 117.65 21.6303H194.571C195.427 21.6303 196.127 20.9008 196.127 20.0093V2.87494C196.127 1.98337 195.427 1.25391 194.571 1.25391ZM131.185 7.77046H121.853V10.2101H131.185V12.6579H121.853V15.0975H131.185V17.5453H120.289C119.861 17.5453 119.511 17.1806 119.511 16.7348V6.14132C119.511 5.68743 119.861 5.3308 120.289 5.3308H131.185V7.77046ZM145.319 14.7652C145.319 14.976 145.234 15.1867 145.086 15.3326L143.194 17.3021C143.054 17.4561 142.852 17.5453 142.65 17.5453H133.645V5.3308H142.65C142.852 5.3308 143.054 5.41186 143.194 5.56585L145.086 7.53541C145.234 7.68941 145.319 7.89204 145.319 8.11088V14.7652ZM150.121 17.5453H147.779V5.3308H150.121V17.5453ZM164.255 7.77046H159.624V17.5453H157.282V7.77046H152.589V6.14132C152.589 5.68743 152.931 5.3308 153.367 5.3308H163.477C163.905 5.3308 164.255 5.68743 164.255 6.14132V7.77046ZM178.389 16.7348C178.389 17.1806 178.039 17.5453 177.611 17.5453H167.493C167.065 17.5453 166.715 17.1806 166.715 16.7348V6.14132C166.715 5.68743 167.065 5.3308 167.493 5.3308H177.611C178.039 5.3308 178.389 5.68743 178.389 6.14132V16.7348ZM192.524 11.8474C192.524 12.2931 192.173 12.6579 191.745 12.6579H190.173L192.524 17.5453H189.893L187.55 12.6579H183.199V17.5453H180.849V5.3308H191.745C192.173 5.3308 192.524 5.68743 192.524 6.14132V11.8474ZM189.784 7.77046H183.199V10.2101H189.784C190.002 10.2101 190.173 10.0318 190.173 9.80486V8.17572C190.173 7.94877 190.002 7.77046 189.784 7.77046ZM175.658 7.77046H169.455C169.237 7.77046 169.065 7.94877 169.065 8.17572V14.6923C169.065 14.9192 169.237 15.0975 169.455 15.0975H175.658C175.868 15.0975 176.047 14.9192 176.047 14.6923V8.17572C176.047 7.94877 175.868 7.77046 175.658 7.77046ZM175.658 7.77046H169.455C169.237 7.77046 169.065 7.94877 169.065 8.17572V14.6923C169.065 14.9192 169.237 15.0975 169.455 15.0975H175.658C175.868 15.0975 176.047 14.9192 176.047 14.6923V8.17572C176.047 7.94877 175.868 7.77046 175.658 7.77046ZM189.784 7.77046H183.199V10.2101H189.784C190.002 10.2101 190.173 10.0318 190.173 9.80486V8.17572C190.173 7.94877 190.002 7.77046 189.784 7.77046ZM189.784 7.77046H183.199V10.2101H189.784C190.002 10.2101 190.173 10.0318 190.173 9.80486V8.17572C190.173 7.94877 190.002 7.77046 189.784 7.77046ZM175.658 7.77046H169.455C169.237 7.77046 169.065 7.94877 169.065 8.17572V14.6923C169.065 14.9192 169.237 15.0975 169.455 15.0975H175.658C175.868 15.0975 176.047 14.9192 176.047 14.6923V8.17572C176.047 7.94877 175.868 7.77046 175.658 7.77046ZM175.658 7.77046H169.455C169.237 7.77046 169.065 7.94877 169.065 8.17572V14.6923C169.065 14.9192 169.237 15.0975 169.455 15.0975H175.658C175.868 15.0975 176.047 14.9192 176.047 14.6923V8.17572C176.047 7.94877 175.868 7.77046 175.658 7.77046ZM175.658 7.77046H169.455C169.237 7.77046 169.065 7.94877 169.065 8.17572V14.6923C169.065 14.9192 169.237 15.0975 169.455 15.0975H175.658C175.868 15.0975 176.047 14.9192 176.047 14.6923V8.17572C176.047 7.94877 175.868 7.77046 175.658 7.77046Z" fill="#00BC7D"/>
<path d="M142.968 8.58005V14.2861C142.968 14.7319 142.618 15.0966 142.189 15.0966H135.986V7.76953H142.189C142.618 7.76953 142.968 8.13426 142.968 8.58005Z" fill="#00BC7D"/>
<path d="M1.55662 1.25391H17.9089C18.765 1.25391 19.4655 1.98337 19.4655 2.87494V5.3308H11.7369V21.6303H7.82199V5.3308H0V2.87494C0 1.98337 0.700477 1.25391 1.55662 1.25391Z" fill="white"/>
<path d="M25.9481 21.6303H22.0332V1.25391H24.3915C25.2476 1.25391 25.9481 1.98337 25.9481 2.87494V9.3996H37.5916V2.87494C37.5916 1.98337 38.292 1.25391 39.1482 1.25391H41.5065V21.6303H37.5916V13.4846H25.9481V21.6303Z" fill="white"/>
<path d="M62.5563 1.25391H47.7607C46.4687 1.25391 45.4258 2.34 45.4258 3.68546V21.6303H49.3407V13.4765H60.9764V21.6303H64.8913V3.68546C64.8913 2.34 63.8483 1.25391 62.5563 1.25391ZM60.9764 9.3996H49.3407V6.14132C49.3407 5.68743 49.6831 5.3308 50.119 5.3308H60.1981C60.6261 5.3308 60.9764 5.68743 60.9764 6.14132V9.3996Z" fill="white"/>
<path d="M68.8242 1.25391H71.6106C72.3266 1.25391 72.9959 1.59432 73.4396 2.1779L84.3748 16.5402V1.25391H88.2897V21.6303H85.5034C84.7873 21.6303 84.118 21.2899 83.6743 20.7063L72.7391 6.34395V21.6222H68.8242V1.25391Z" fill="white"/>
<path d="M102.014 9.3996H110.139C110.995 9.3996 111.696 10.1291 111.696 11.0206V19.1906C111.696 20.5361 110.653 21.6222 109.361 21.6222H94.5654C93.2734 21.6222 92.2305 20.5361 92.2305 19.1906V3.68546C92.2305 2.34 93.2734 1.25391 94.5654 1.25391H109.361C110.653 1.25391 111.696 2.34 111.696 3.68546V5.3308H96.9237C96.4956 5.3308 96.1454 5.69554 96.1454 6.14132V16.7429C96.1454 17.1887 96.4956 17.5534 96.9237 17.5534H107.011C107.439 17.5534 107.789 17.1887 107.789 16.7429V14.287C107.789 13.8412 107.439 13.4765 107.011 13.4765H103.578C102.722 13.4765 102.022 12.747 102.022 11.8555V9.3996H102.014Z" fill="white"/>
</svg>
