<svg width="197" height="22" viewBox="0 0 197 22" fill="none" xmlns="http://www.w3.org/2000/svg">
<path d="M175.658 7.34858H169.455C169.237 7.34858 169.065 7.5269 169.065 7.75384V14.2704C169.065 14.4973 169.237 14.6757 169.455 14.6757H175.658C175.868 14.6757 176.047 14.4973 176.047 14.2704V7.75384C176.047 7.5269 175.868 7.34858 175.658 7.34858ZM189.784 7.34858H183.199V9.78824H189.784C190.002 9.78824 190.173 9.60993 190.173 9.38298V7.75384C190.173 7.5269 190.002 7.34858 189.784 7.34858ZM189.784 7.34858H183.199V9.78824H189.784C190.002 9.78824 190.173 9.60993 190.173 9.38298V7.75384C190.173 7.5269 190.002 7.34858 189.784 7.34858ZM175.658 7.34858H169.455C169.237 7.34858 169.065 7.5269 169.065 7.75384V14.2704C169.065 14.4973 169.237 14.6757 169.455 14.6757H175.658C175.868 14.6757 176.047 14.4973 176.047 14.2704V7.75384C176.047 7.5269 175.868 7.34858 175.658 7.34858ZM175.658 7.34858H169.455C169.237 7.34858 169.065 7.5269 169.065 7.75384V14.2704C169.065 14.4973 169.237 14.6757 169.455 14.6757H175.658C175.868 14.6757 176.047 14.4973 176.047 14.2704V7.75384C176.047 7.5269 175.868 7.34858 175.658 7.34858ZM189.784 7.34858H183.199V9.78824H189.784C190.002 9.78824 190.173 9.60993 190.173 9.38298V7.75384C190.173 7.5269 190.002 7.34858 189.784 7.34858ZM189.784 7.34858H183.199V9.78824H189.784C190.002 9.78824 190.173 9.60993 190.173 9.38298V7.75384C190.173 7.5269 190.002 7.34858 189.784 7.34858ZM175.658 7.34858H169.455C169.237 7.34858 169.065 7.5269 169.065 7.75384V14.2704C169.065 14.4973 169.237 14.6757 169.455 14.6757H175.658C175.868 14.6757 176.047 14.4973 176.047 14.2704V7.75384C176.047 7.5269 175.868 7.34858 175.658 7.34858ZM194.571 0.832031H117.65C116.794 0.832031 116.094 1.5615 116.094 2.45306V19.5874C116.094 20.479 116.794 21.2084 117.65 21.2084H194.571C195.427 21.2084 196.127 20.479 196.127 19.5874V2.45306C196.127 1.5615 195.427 0.832031 194.571 0.832031ZM131.185 7.34858H121.853V9.78824H131.185V12.236H121.853V14.6757H131.185V17.1234H120.289C119.861 17.1234 119.511 16.7587 119.511 16.3129V5.71945C119.511 5.26556 119.861 4.90893 120.289 4.90893H131.185V7.34858ZM145.319 14.3433C145.319 14.5541 145.234 14.7648 145.086 14.9107L143.194 16.8803C143.054 17.0343 142.852 17.1234 142.65 17.1234H133.645V4.90893H142.65C142.852 4.90893 143.054 4.98998 143.194 5.14398L145.086 7.11353C145.234 7.26753 145.319 7.47016 145.319 7.689V14.3433ZM150.121 17.1234H147.779V4.90893H150.121V17.1234ZM164.255 7.34858H159.624V17.1234H157.282V7.34858H152.589V5.71945C152.589 5.26556 152.931 4.90893 153.367 4.90893H163.477C163.905 4.90893 164.255 5.26556 164.255 5.71945V7.34858ZM178.389 16.3129C178.389 16.7587 178.039 17.1234 177.611 17.1234H167.493C167.065 17.1234 166.715 16.7587 166.715 16.3129V5.71945C166.715 5.26556 167.065 4.90893 167.493 4.90893H177.611C178.039 4.90893 178.389 5.26556 178.389 5.71945V16.3129ZM192.524 11.4255C192.524 11.8713 192.173 12.236 191.745 12.236H190.173L192.524 17.1234H189.893L187.55 12.236H183.199V17.1234H180.849V4.90893H191.745C192.173 4.90893 192.524 5.26556 192.524 5.71945V11.4255ZM189.784 7.34858H183.199V9.78824H189.784C190.002 9.78824 190.173 9.60993 190.173 9.38298V7.75384C190.173 7.5269 190.002 7.34858 189.784 7.34858ZM175.658 7.34858H169.455C169.237 7.34858 169.065 7.5269 169.065 7.75384V14.2704C169.065 14.4973 169.237 14.6757 169.455 14.6757H175.658C175.868 14.6757 176.047 14.4973 176.047 14.2704V7.75384C176.047 7.5269 175.868 7.34858 175.658 7.34858ZM175.658 7.34858H169.455C169.237 7.34858 169.065 7.5269 169.065 7.75384V14.2704C169.065 14.4973 169.237 14.6757 169.455 14.6757H175.658C175.868 14.6757 176.047 14.4973 176.047 14.2704V7.75384C176.047 7.5269 175.868 7.34858 175.658 7.34858ZM189.784 7.34858H183.199V9.78824H189.784C190.002 9.78824 190.173 9.60993 190.173 9.38298V7.75384C190.173 7.5269 190.002 7.34858 189.784 7.34858ZM189.784 7.34858H183.199V9.78824H189.784C190.002 9.78824 190.173 9.60993 190.173 9.38298V7.75384C190.173 7.5269 190.002 7.34858 189.784 7.34858ZM175.658 7.34858H169.455C169.237 7.34858 169.065 7.5269 169.065 7.75384V14.2704C169.065 14.4973 169.237 14.6757 169.455 14.6757H175.658C175.868 14.6757 176.047 14.4973 176.047 14.2704V7.75384C176.047 7.5269 175.868 7.34858 175.658 7.34858ZM175.658 7.34858H169.455C169.237 7.34858 169.065 7.5269 169.065 7.75384V14.2704C169.065 14.4973 169.237 14.6757 169.455 14.6757H175.658C175.868 14.6757 176.047 14.4973 176.047 14.2704V7.75384C176.047 7.5269 175.868 7.34858 175.658 7.34858ZM175.658 7.34858H169.455C169.237 7.34858 169.065 7.5269 169.065 7.75384V14.2704C169.065 14.4973 169.237 14.6757 169.455 14.6757H175.658C175.868 14.6757 176.047 14.4973 176.047 14.2704V7.75384C176.047 7.5269 175.868 7.34858 175.658 7.34858Z" fill="#00BC7D"/>
<path d="M142.968 8.15915V13.8652C142.968 14.311 142.618 14.6757 142.189 14.6757H135.986V7.34863H142.189C142.618 7.34863 142.968 7.71337 142.968 8.15915Z" fill="#00BC7D"/>
<path d="M1.55662 0.832031H17.9089C18.765 0.832031 19.4655 1.5615 19.4655 2.45306V4.90893H11.7369V21.2084H7.82199V4.90893H0V2.45306C0 1.5615 0.700477 0.832031 1.55662 0.832031Z" fill="#205658"/>
<path d="M25.9481 21.2084H22.0332V0.832031H24.3915C25.2476 0.832031 25.9481 1.5615 25.9481 2.45306V8.97772H37.5916V2.45306C37.5916 1.5615 38.292 0.832031 39.1482 0.832031H41.5065V21.2084H37.5916V13.0627H25.9481V21.2084Z" fill="#205658"/>
<path d="M62.5563 0.832031H47.7607C46.4687 0.832031 45.4258 1.91812 45.4258 3.26358V21.2084H49.3407V13.0546H60.9764V21.2084H64.8913V3.26358C64.8913 1.91812 63.8483 0.832031 62.5563 0.832031ZM60.9764 8.97772H49.3407V5.71945C49.3407 5.26556 49.6831 4.90893 50.119 4.90893H60.1981C60.6261 4.90893 60.9764 5.26556 60.9764 5.71945V8.97772Z" fill="#205658"/>
<path d="M68.8242 0.832031H71.6106C72.3266 0.832031 72.9959 1.17245 73.4396 1.75602L84.3748 16.1184V0.832031H88.2897V21.2084H85.5034C84.7873 21.2084 84.118 20.868 83.6743 20.2844L72.7391 5.92208V21.2003H68.8242V0.832031Z" fill="#205658"/>
<path d="M102.014 8.97772H110.139C110.995 8.97772 111.696 9.70719 111.696 10.5988V18.7688C111.696 20.1142 110.653 21.2003 109.361 21.2003H94.5654C93.2734 21.2003 92.2305 20.1142 92.2305 18.7688V3.26358C92.2305 1.91812 93.2734 0.832031 94.5654 0.832031H109.361C110.653 0.832031 111.696 1.91812 111.696 3.26358V4.90893H96.9237C96.4956 4.90893 96.1454 5.27366 96.1454 5.71945V16.321C96.1454 16.7668 96.4956 17.1315 96.9237 17.1315H107.011C107.439 17.1315 107.789 16.7668 107.789 16.321V13.8651C107.789 13.4194 107.439 13.0546 107.011 13.0546H103.578C102.722 13.0546 102.022 12.3252 102.022 11.4336V8.97772H102.014Z" fill="#205658"/>
</svg>
