<svg width="271" height="36" viewBox="0 0 271 36" fill="none" xmlns="http://www.w3.org/2000/svg">
<path d="M269.819 14.3034C269.403 12.9301 268.71 11.8234 267.727 11.0767C266.769 10.3434 265.546 9.89008 264.109 9.66341C262.71 9.43674 261.008 9.33008 259.029 9.33008C257.05 9.33008 255.361 9.43674 253.95 9.66341C252.513 9.89008 251.29 10.3434 250.332 11.0767C249.349 11.8234 248.656 12.9301 248.24 14.3034C247.824 15.6767 247.635 17.4367 247.635 19.5701C247.635 21.7034 247.824 23.5834 248.24 24.9834C248.656 26.3834 249.349 27.5167 250.332 28.2767C251.177 28.9167 252.21 29.3434 253.42 29.5834L253.95 29.6767C255.361 29.9034 257.05 30.0101 259.029 30.0101C261.008 30.0101 262.71 29.9034 264.109 29.6767C265.546 29.4634 266.769 29.0101 267.727 28.2767C268.71 27.5167 269.403 26.3834 269.819 24.9834C270.235 23.5834 270.424 21.7701 270.424 19.5701C270.424 17.3701 270.235 15.6767 269.819 14.3034ZM265.886 23.2501C265.76 24.1034 265.496 24.6367 265.155 24.9701C264.802 25.3034 264.197 25.5834 263.201 25.7301C262.206 25.8767 260.819 25.9567 259.029 25.9567C257.466 25.9567 256.206 25.8901 255.248 25.7834L254.857 25.7301C253.861 25.5834 253.256 25.3034 252.903 24.9701C252.601 24.6767 252.361 24.2234 252.21 23.5567L252.16 23.2501C252.021 22.3567 251.958 21.1301 251.958 19.5701C251.958 18.0101 252.021 16.8901 252.16 16.0234C252.286 15.2234 252.563 14.7034 252.891 14.3967H252.903C253.244 14.0634 253.861 13.7701 254.857 13.6234C255.853 13.4767 257.239 13.3834 259.029 13.3834C260.819 13.3834 262.206 13.4767 263.201 13.6234C264.197 13.7701 264.815 14.0634 265.155 14.3834H265.168C265.496 14.7034 265.76 15.2101 265.886 16.0234C266.025 16.8901 266.101 18.0634 266.101 19.5701C266.101 21.0767 266.025 22.3567 265.886 23.2501Z" fill="#1A1D20"/>
<path d="M245.993 20.1045V20.8779C245.993 22.7312 245.88 24.2645 245.64 25.4245C245.413 26.6245 244.985 27.6112 244.304 28.3312C243.623 29.0379 242.703 29.4645 241.632 29.6645C240.586 29.8512 239.275 29.9579 237.699 29.9579C235.821 29.9579 234.271 29.7712 233.061 29.3445C231.8 28.8912 230.842 28.0779 230.237 26.8912C229.67 25.7179 229.418 24.1712 229.418 22.3179V4.14453H233.88V9.35786H244.972V13.5045H233.88V22.3045C233.88 23.5045 233.981 24.3179 234.157 24.7979L234.208 24.9179C234.334 25.2112 234.573 25.3979 234.964 25.5045C235.519 25.6645 236.439 25.7712 237.712 25.7712C238.871 25.7712 239.741 25.7312 240.346 25.6645C240.926 25.5979 241.229 25.4245 241.392 25.2645C241.531 25.1045 241.708 24.7445 241.783 24.0512C241.859 23.3179 241.897 22.2645 241.897 20.8779V20.1045H246.018H245.993Z" fill="#1A1D20"/>
<path d="M227.163 14.3034C226.734 12.9301 226.053 11.8234 225.07 11.0767C224.112 10.3434 222.89 9.89008 221.453 9.66341C220.054 9.43674 218.352 9.33008 216.373 9.33008C214.394 9.33008 212.705 9.43674 211.293 9.66341C209.857 9.89008 208.634 10.3434 207.676 11.0767C206.693 11.8234 206 12.9301 205.584 14.3034C205.168 15.6767 204.979 17.4367 204.979 19.5701C204.979 21.7034 205.168 23.5834 205.584 24.9834C206 26.3834 206.693 27.5167 207.676 28.2767C208.52 28.9167 209.554 29.3434 210.764 29.5834L211.293 29.6767C212.705 29.9034 214.394 30.0101 216.373 30.0101C218.352 30.0101 220.054 29.9034 221.453 29.6767C222.89 29.4634 224.112 29.0101 225.07 28.2767C226.053 27.5167 226.747 26.3834 227.163 24.9834C227.579 23.5834 227.768 21.7701 227.768 19.5701C227.768 17.3701 227.579 15.6767 227.163 14.3034ZM223.23 23.2501C223.104 24.1034 222.839 24.6367 222.486 24.9701C222.146 25.3034 221.528 25.5834 220.545 25.7301C219.55 25.8767 218.163 25.9567 216.373 25.9567C214.81 25.9567 213.55 25.8901 212.592 25.7834L212.201 25.7301C211.205 25.5834 210.6 25.3034 210.247 24.9701C209.945 24.6767 209.705 24.2234 209.554 23.5567L209.504 23.2501C209.365 22.3567 209.302 21.1301 209.302 19.5701C209.302 18.0101 209.365 16.8901 209.504 16.0234C209.63 15.2234 209.894 14.7034 210.235 14.3967H210.247C210.588 14.0634 211.205 13.7701 212.201 13.6234C213.197 13.4767 214.583 13.3834 216.373 13.3834C218.163 13.3834 219.55 13.4767 220.545 13.6234C221.541 13.7701 222.146 14.0634 222.499 14.3834C222.839 14.7034 223.104 15.2101 223.23 16.0234C223.369 16.8901 223.444 18.0634 223.444 19.5701C223.444 21.0767 223.369 22.3567 223.23 23.2501Z" fill="#1A1D20"/>
<path d="M203.076 18.7309V29.9576H198.74V18.7309C198.74 17.5042 198.639 16.5709 198.462 15.8909C198.298 15.2376 198.021 14.8109 197.668 14.5309C197.315 14.2376 196.773 14.0109 195.979 13.8909C195.16 13.7576 194.114 13.6909 192.803 13.6909C190.811 13.6909 189.299 13.8642 188.24 14.1976C187.181 14.5176 186.538 14.9976 186.185 15.5576C185.807 16.1442 185.593 16.9709 185.593 18.0776V29.9576H181.27V3.82422H185.593V11.3842C185.769 11.2376 185.933 11.1176 186.122 10.9976C186.879 10.5176 187.824 10.1842 188.946 9.97089L189.387 9.89089C190.458 9.71755 191.769 9.63755 193.32 9.63755C195.639 9.63755 197.53 9.86422 198.941 10.3709C200.429 10.9042 201.525 11.8642 202.181 13.2776C202.798 14.6376 203.076 16.4776 203.076 18.7309Z" fill="#1A1D20"/>
<path d="M178.775 14.3034C178.346 12.9301 177.666 11.8234 176.67 11.0767C175.725 10.3434 174.502 9.89008 173.065 9.66341C171.666 9.43674 169.964 9.33008 167.985 9.33008C166.006 9.33008 164.443 9.47674 163.082 9.79674C162.263 9.98341 161.544 10.3167 160.902 10.7834V9.67675H156.578V35.8234H160.902V28.5567C161.544 29.0234 162.263 29.3567 163.082 29.5434C164.443 29.8634 166.082 30.0101 167.985 30.0101C169.889 30.0101 171.666 29.9034 173.065 29.6767C174.502 29.4634 175.725 29.0101 176.67 28.2767H176.683C177.666 27.5167 178.346 26.3834 178.775 24.9834C179.191 23.5834 179.38 21.7701 179.38 19.5701C179.38 17.3701 179.191 15.6767 178.775 14.3034ZM174.842 23.2501C174.716 24.1034 174.452 24.6367 174.099 24.9701C173.758 25.3034 173.141 25.5834 172.157 25.7301C171.162 25.8767 169.775 25.9567 167.985 25.9567C166.561 25.9567 165.389 25.8901 164.469 25.7834L164.078 25.7301C163.133 25.5834 162.49 25.3034 162.074 24.9567C161.683 24.5967 161.368 24.0501 161.191 23.2101C161.002 22.3434 160.902 21.1301 160.902 19.5701C160.902 18.0101 161.002 16.9167 161.191 16.0634C161.368 15.2634 161.683 14.7434 162.061 14.4101H162.074C162.49 14.0501 163.133 13.7701 164.078 13.6234C165.061 13.4767 166.347 13.3834 167.985 13.3834C169.775 13.3834 171.162 13.4767 172.157 13.6234C173.153 13.7701 173.758 14.0634 174.111 14.3834C174.452 14.7034 174.716 15.2101 174.842 16.0234C174.981 16.8901 175.057 18.0634 175.057 19.5701C175.057 21.0767 174.981 22.3567 174.842 23.2501Z" fill="#1A1D20"/>
<path d="M131.482 3.87695H127.158V30.0103H131.482V3.87695Z" fill="#1A1D20"/>
<path d="M125.266 16.5567C125.266 14.6634 124.876 13.1034 124.006 11.9967C123.161 10.8901 121.901 10.1967 120.338 9.85008C118.8 9.50341 116.897 9.33008 114.641 9.33008C112.662 9.33008 110.973 9.43674 109.573 9.66341C108.149 9.89008 106.939 10.3434 105.994 11.0767C105.023 11.8367 104.343 12.9301 103.939 14.3167C103.548 15.6767 103.359 17.4367 103.359 19.5701C103.359 21.7034 103.548 23.5834 103.952 24.9701C104.368 26.3834 105.048 27.5034 106.032 28.2767C106.99 29.0101 108.2 29.4634 109.636 29.6767C111.048 29.9034 112.737 30.0101 114.716 30.0101C116.43 30.0101 117.93 29.9567 119.178 29.8501C120.476 29.7434 121.573 29.5034 122.468 29.1034C123.413 28.6767 124.132 27.9701 124.586 27.0234C125.052 26.0767 125.266 24.8634 125.266 23.4234V22.6767H121.132V23.4234C121.132 24.1167 121.056 24.5967 120.93 24.9034C120.842 25.1301 120.666 25.3301 120.313 25.4901C120.023 25.6234 119.607 25.7301 119.014 25.7967L118.384 25.8501C117.464 25.9167 116.241 25.9567 114.716 25.9567C113.443 25.9567 112.372 25.9167 111.502 25.8501L110.695 25.7701C109.725 25.6367 109.094 25.3834 108.729 25.0767C108.376 24.7967 108.099 24.3434 107.96 23.6501C107.834 23.0501 107.746 22.2501 107.721 21.2634H125.266V16.5567ZM121.056 17.3567H107.721C107.746 16.6901 107.809 16.1301 107.91 15.6634L107.96 15.4234C108.111 14.8501 108.389 14.4634 108.742 14.2101H108.754C109.145 13.9301 109.788 13.7034 110.733 13.5834C111.704 13.4501 113.002 13.3834 114.641 13.3834C116.178 13.3834 117.401 13.4501 118.296 13.5567C119.216 13.6767 119.821 13.8634 120.174 14.0901C120.527 14.3034 120.729 14.5701 120.829 14.8901C120.968 15.3034 121.044 15.8367 121.044 16.5567V17.3567H121.056Z" fill="#1A1D20"/>
<path d="M55.2351 9.93073V9.98406H63.4911V13.8107H55.2351V29.9574H50.9117V13.8107H48V9.98406H50.9117V9.93073C50.9117 8.10406 51.189 6.5974 51.8192 5.49073C52.4747 4.37073 53.4704 3.62406 54.7561 3.22406C56.004 2.8374 57.5543 2.66406 59.3946 2.66406H63.4911V6.66406H59.382C57.9577 6.66406 56.9619 6.7574 56.3695 6.93073C55.8527 7.06406 55.6132 7.3174 55.4998 7.62406L55.4367 7.7974C55.3107 8.25073 55.2351 8.94406 55.2351 9.93073Z" fill="#1A1D20"/>
<path d="M69.7043 3.83691H65.3809V8.41025H69.7043V3.83691Z" fill="#1A1D20"/>
<path d="M69.7043 10.0908H65.3809V29.9708H69.7043V10.0908Z" fill="#1A1D20"/>
<path d="M93.2378 19.6501L103.246 29.9701H97.1452L96.9435 29.7434L87.3262 19.6501L96.9435 9.54341L97.1452 9.33008H103.246L93.2378 19.6501Z" fill="#1A1D20"/>
<path d="M87.1501 19.6501L77.5328 29.7434L77.3185 29.9701H71.2305L81.2386 19.6501L71.2305 9.33008H77.3185L77.5328 9.54341L87.1501 19.6501Z" fill="#FDC101"/>
<path d="M154.748 23.5171C154.748 24.9304 154.559 26.1038 154.118 26.9971C153.689 27.9171 152.971 28.6104 152.038 29.0371C151.143 29.4371 149.984 29.6904 148.61 29.7971C147.261 29.9038 145.635 29.9571 143.719 29.9571C141.576 29.9571 139.824 29.8771 138.501 29.7304C137.165 29.5704 136.093 29.2771 135.312 28.8104C134.518 28.3171 133.963 27.5971 133.686 26.6904C133.434 25.8504 133.32 24.7838 133.32 23.5571V22.8904H137.392V23.5571C137.392 24.1971 137.442 24.6904 137.505 25.0504L137.555 25.1837C137.618 25.3037 137.732 25.4371 137.946 25.5571C138.274 25.7038 138.854 25.8504 139.787 25.9304H139.799C140.732 26.0104 142.068 26.0371 143.807 26.0371C145.635 26.0371 147.047 26.0104 148.043 25.9304L148.736 25.8638C149.353 25.7704 149.769 25.6637 150.047 25.5438C150.349 25.3838 150.45 25.2104 150.5 25.0371C150.576 24.6771 150.626 24.1971 150.626 23.5171C150.626 22.7037 150.563 22.1571 150.45 21.8504C150.4 21.7037 150.286 21.5437 149.895 21.4371H149.883C149.442 21.3171 148.66 21.2371 147.513 21.2238L140.53 21.1437C138.702 21.1171 137.266 20.9571 136.232 20.6371C135.161 20.2904 134.341 19.6637 133.913 18.7037H133.9C133.497 17.8104 133.333 16.6104 133.333 15.1704C133.333 13.8104 133.522 12.6771 133.976 11.8371C134.442 10.9704 135.186 10.3571 136.119 10.0104C137.001 9.67708 138.135 9.49042 139.459 9.43708C140.782 9.37042 142.345 9.34375 144.198 9.34375C146.379 9.34375 148.118 9.41042 149.416 9.55708C150.727 9.70375 151.786 9.97042 152.53 10.4237C153.311 10.8904 153.841 11.5971 154.08 12.5304C154.307 13.3304 154.408 14.3704 154.408 15.5704V16.2371H150.324V15.5704C150.324 14.9038 150.286 14.4104 150.211 14.0771C150.173 13.9038 150.072 13.7571 149.832 13.6504H149.82C149.542 13.5037 148.988 13.3837 148.093 13.3304C147.223 13.2904 145.963 13.2504 144.337 13.2504C142.497 13.2504 141.072 13.2771 140.051 13.3171C139.03 13.3571 138.362 13.4637 137.997 13.5971C137.656 13.7171 137.581 13.8504 137.568 13.9171C137.492 14.1704 137.442 14.5704 137.442 15.1704C137.442 15.7704 137.467 16.2104 137.518 16.5304C137.555 16.7037 137.631 16.8104 137.757 16.8904C137.908 16.9971 138.249 17.1038 138.866 17.1704C139.484 17.2238 140.379 17.2504 141.526 17.2637L147.564 17.3304C149.391 17.3438 150.828 17.5037 151.849 17.8371C152.933 18.1704 153.752 18.8238 154.168 19.8371C154.572 20.7438 154.736 21.9971 154.736 23.5304L154.748 23.5171Z" fill="#1A1D20"/>
<path d="M45.1774 -0.00292969L43.3624 5.02374L41.5851 9.91707H23.0059L23.9008 7.4504L24.4176 6.02374C25.7285 2.39707 29.0183 -0.00292969 32.6988 -0.00292969H45.1774Z" fill="#FDC101"/>
<path d="M33.253 12.623L30.6943 20.3564L29.812 23.0097H14.4469L11.6234 31.5564H0.00195312L2.8254 23.0097L3.922 19.6764C5.32112 15.4497 9.08991 12.623 13.3251 12.623H33.2404H33.253Z" fill="#FDC101"/>
<path d="M19.6005 4.95707C19.6005 7.70374 17.4955 9.91707 14.9116 9.91707C12.3276 9.91707 10.2227 7.6904 10.2227 4.95707C10.2227 2.22374 12.1764 0.15707 14.6343 -0.00292969H15.2015C17.6594 0.15707 19.6005 2.31707 19.6005 4.95707Z" fill="#1A1D20"/>
</svg>
