<svg width="32" height="32" viewBox="0 0 32 32" fill="none" xmlns="http://www.w3.org/2000/svg">
<path d="M31.8423 5.32031L30.5617 8.66729L29.3134 11.9294H16.2207L16.8491 10.2881L17.2142 9.33394C18.1394 6.91663 20.4595 5.32031 23.0478 5.32031H31.8423Z" fill="#00BC7D"/>
<path d="M23.4324 13.7324L21.6296 18.8874L21.0112 20.6541H10.1806L8.18783 26.3499H0L1.99273 20.6541L2.76947 18.4342C3.75437 15.6182 6.41168 13.7324 9.39493 13.7324H23.4324Z" fill="#00BC7D"/>
<path d="M13.8181 8.62176C13.8181 10.4482 12.3389 11.9294 10.5136 11.9294C8.68821 11.9294 7.20898 10.4482 7.20898 8.62176C7.20898 6.79532 8.58095 5.42456 10.3115 5.32031H10.7156C12.4468 5.42456 13.8181 6.86274 13.8181 8.62176Z" fill="#00BC7D"/>
</svg>
